<?xml version="1.0" encoding="UTF-8"?>
<svg xmlns="http://www.w3.org/2000/svg" version="1.1" viewBox="0 0 20 20">
  <path d="M4.5,20c-2.48,0-4.5-2.02-4.5-4.5s2.02-4.5,4.5-4.5c1.07,0,2.05.38,2.83,1h9.17c1.93,0,3.5,1.57,3.5,3.5s-1.57,3.5-3.5,3.5H7.33c-.77.62-1.76,1-2.83,1ZM4.5,13c-1.38,0-2.5,1.12-2.5,2.5s1.12,2.5,2.5,2.5,2.5-1.12,2.5-2.5-1.12-2.5-2.5-2.5ZM8.74,17h7.76c.83,0,1.5-.67,1.5-1.5s-.67-1.5-1.5-1.5h-7.76c.17.47.26.97.26,1.5s-.09,1.03-.26,1.5ZM15.5,9c-1.07,0-2.05-.38-2.83-1H3.5c-1.93,0-3.5-1.57-3.5-3.5S1.57,1,3.5,1h9.17c.77-.62,1.76-1,2.83-1,2.48,0,4.5,2.02,4.5,4.5s-2.02,4.5-4.5,4.5ZM15.5,2c-1.38,0-2.5,1.12-2.5,2.5s1.12,2.5,2.5,2.5,2.5-1.12,2.5-2.5-1.12-2.5-2.5-2.5ZM3.5,3c-.83,0-1.5.67-1.5,1.5s.67,1.5,1.5,1.5h7.76c-.17-.47-.26-.97-.26-1.5s.09-1.03.26-1.5H3.5Z"/>
</svg>