<?xml version="1.0" encoding="UTF-8"?>
<svg xmlns="http://www.w3.org/2000/svg" version="1.1" viewBox="0 0 20 20">
  <path fill="#5f697c" d="M14.2,20h-.2c-.55,0-1-.45-1-1s.45-1,1-1h.2c1.47,0,2.28,0,2.71-.22.38-.19.68-.49.87-.87.22-.43.22-1.24.22-2.71V5.8c0-1.47,0-2.28-.22-2.71-.19-.38-.5-.68-.87-.87-.43-.22-1.24-.22-2.71-.22H5.8c-1.47,0-2.28,0-2.71.22-.38.19-.68.5-.87.87-.22.43-.22,1.24-.22,2.71v.2c0,.55-.45,1-1,1s-1-.45-1-1v-.2c0-1.84,0-2.76.44-3.62.39-.76.99-1.36,1.75-1.75.86-.44,1.78-.44,3.62-.44h8.4c1.84,0,2.76,0,3.62.44.76.39,1.36.99,1.75,1.75.44.85.44,1.78.44,3.62v8.4c0,1.84,0,2.76-.44,3.62-.39.76-.99,1.36-1.75,1.75-.86.44-1.78.44-3.62.44ZM6.8,20h-2.6c-1.24,0-1.92,0-2.56-.33-.57-.29-1.02-.74-1.31-1.31-.33-.64-.33-1.33-.33-2.56v-2.6c0-1.24,0-1.92.33-2.56.29-.57.74-1.02,1.31-1.31.64-.33,1.33-.33,2.56-.33h2.6c1.19,0,1.87,0,2.49.29l3.29-3.29h-2.59c-.55,0-1-.45-1-1s.45-1,1-1h5c.13,0,.26.03.38.08.12.05.23.12.33.22s.17.21.22.33c.05.12.08.24.08.38h0v5c0,.55-.45,1-1,1s-1-.45-1-1v-2.59l-3.29,3.29c.29.62.29,1.3.29,2.49v2.6c0,1.24,0,1.92-.33,2.56-.29.57-.74,1.02-1.31,1.31-.64.33-1.33.33-2.56.33ZM4.2,11c-.87,0-1.44,0-1.66.11-.19.09-.34.25-.44.44-.11.21-.11.79-.11,1.65v2.6c0,.87,0,1.44.11,1.65.1.19.25.34.44.44.21.11.79.11,1.65.11h2.6c.87,0,1.44,0,1.66-.11.19-.1.34-.25.44-.44.11-.21.11-.79.11-1.65v-2.6c0-.87,0-1.44-.11-1.65-.1-.19-.25-.34-.44-.44-.21-.11-.79-.11-1.65-.11h-2.6Z"/>
</svg>