<?xml version="1.0" encoding="UTF-8"?>
<svg xmlns="http://www.w3.org/2000/svg" version="1.1" viewBox="0 0 22 22">
  <path fill="#5f697c" d="M1.17,21.5c-.26,0-.52-.1-.71-.29-.22-.22-.33-.53-.28-.84.06-.42.6-4.17,2.35-5.63.6-.5,1.36-.77,2.15-.75.79.02,1.53.34,2.1.88,1.16,1.15,1.23,3.02.16,4.28-1.46,1.74-5.21,2.29-5.63,2.35-.04,0-.09,0-.13,0ZM4.57,15.99c-.28,0-.55.1-.76.28,0,0,0,0,0,0-.61.51-1.08,1.8-1.38,2.97,1.17-.29,2.46-.77,2.97-1.38.39-.46.38-1.16-.03-1.55-.2-.19-.47-.3-.77-.31-.01,0-.02,0-.04,0ZM3.17,15.5h0,0ZM10.67,20c-.23,0-.46-.08-.64-.23-.23-.19-.36-.47-.36-.77v-4.59l-2.41-2.41H2.67c-.3,0-.58-.13-.77-.36-.19-.23-.27-.53-.22-.82.06-.35.68-3.48,2.43-4.65,1.51-1.01,3.94-.61,5.15-.32,1.21-1.7,2.8-3.12,4.63-4.13C15.97.58,18.33,0,20.67,0c.55,0,.99.45.99,1,0,2.7-.78,7.69-5.85,11.41.29,1.22.69,3.63-.32,5.14-1.17,1.75-4.3,2.37-4.65,2.43-.06.01-.12.02-.18.02ZM11.67,14.68v3.03c.88-.29,1.81-.73,2.17-1.26.42-.62.35-1.86.17-2.89-.76.42-1.54.8-2.34,1.13ZM8.84,10.76l2.07,2.07c1.11-.46,2.19-1.02,3.2-1.66,0,0,0,0,.01,0,4.06-2.73,5.28-6.3,5.5-9.12-1.67.14-3.29.62-4.76,1.43-1.77.97-3.27,2.4-4.35,4.11-.65,1.01-1.21,2.08-1.67,3.18ZM3.96,10h3.03c.34-.8.72-1.58,1.14-2.34-1.04-.18-2.29-.25-2.91.17-.54.36-.98,1.31-1.26,2.17Z"/>
</svg>