<?xml version="1.0" encoding="UTF-8"?>
<svg xmlns="http://www.w3.org/2000/svg" version="1.1" viewBox="0 0 22 20">
  <path d="M21,20H1c-.55,0-1-.45-1-1s.45-1,1-1v-7.4c0-.65,0-1.08.22-1.51.19-.38.5-.68.87-.87.43-.22.86-.22,1.51-.22h1.9v-3.8c0-1.24,0-1.92.33-2.56.29-.57.74-1.02,1.31-1.31C7.78,0,8.46,0,9.7,0h2.6C13.54,0,14.22,0,14.86.33c.57.29,1.02.74,1.31,1.31.33.64.33,1.32.33,2.56v3.8h1.9c.65,0,1.08,0,1.51.22.38.19.68.49.87.87.22.43.22.86.22,1.51v7.4c.55,0,1,.45,1,1s-.45,1-1,1ZM16.5,18h2.5v-7.4c0-.28,0-.57-.02-.65-.01.05-.3.05-.58.05h-1.9v8ZM7.5,18h7V4.2c0-.87,0-1.44-.11-1.65-.1-.19-.25-.34-.44-.44-.21-.11-.79-.11-1.65-.11h-2.6c-.87,0-1.44,0-1.66.11-.19.1-.34.25-.44.44-.11.21-.11.79-.11,1.65v13.8ZM3,18h2.5v-8h-1.9c-.28,0-.57,0-.65.02.05.01.05.3.05.58v7.4ZM12,14h-2c-.55,0-1-.45-1-1s.45-1,1-1h2c.55,0,1,.45,1,1s-.45,1-1,1ZM12,10h-2c-.55,0-1-.45-1-1s.45-1,1-1h2c.55,0,1,.45,1,1s-.45,1-1,1ZM12,6h-2c-.55,0-1-.45-1-1s.45-1,1-1h2c.55,0,1,.45,1,1s-.45,1-1,1Z"/>
</svg>