<?xml version="1.0" encoding="UTF-8"?>
<svg xmlns="http://www.w3.org/2000/svg" version="1.1" viewBox="0 0 22 20">
  <path fill="#00b07d" d="M17.8,20H4.2c-1.24,0-1.92,0-2.56-.33-.57-.29-1.02-.74-1.31-1.31-.33-.64-.33-1.33-.33-2.56v-7.6c0-1.24,0-1.92.33-2.56.29-.57.74-1.02,1.31-1.31.64-.33,1.33-.33,2.56-.33h1.81c.01-.42.05-.73.13-1.03.37-1.38,1.45-2.46,2.83-2.83.51-.14,1.02-.14,2.04-.14s1.53,0,2.03.14c1.38.37,2.46,1.45,2.83,2.83.08.31.12.62.13,1.04h1.81c1.24,0,1.92,0,2.56.33.57.29,1.02.74,1.31,1.31.33.64.33,1.33.33,2.56v7.6c0,1.24,0,1.92-.33,2.56-.29.57-.74,1.02-1.31,1.31-.64.33-1.33.33-2.56.33ZM16,18h1.8c.87,0,1.44,0,1.65-.11.19-.1.34-.25.44-.44.11-.21.11-.79.11-1.65v-7.6c0-.87,0-1.44-.11-1.66-.1-.19-.25-.34-.44-.44-.21-.11-.79-.11-1.65-.11h-1.8v12ZM8,18h6V6h-6v12ZM4.2,6c-.87,0-1.44,0-1.66.11-.19.1-.34.25-.44.44-.11.21-.11.79-.11,1.65v7.6c0,.87,0,1.44.11,1.65.1.19.25.34.44.44.21.11.79.11,1.65.11h1.8V6h-1.8ZM8.01,4h5.98c0-.23-.03-.4-.06-.52-.18-.69-.73-1.23-1.41-1.42-.25-.07-.7-.07-1.52-.07s-1.26,0-1.52.07c-.69.18-1.23.73-1.41,1.41-.03.12-.05.29-.06.52Z"/>
</svg>