<?xml version="1.0" encoding="UTF-8"?>
<svg xmlns="http://www.w3.org/2000/svg" version="1.1" viewBox="0 0 22 18">
  <path d="M16.2,18H5.8c-1.84,0-2.76,0-3.62-.44-.76-.39-1.36-.99-1.75-1.75-.44-.86-.44-1.78-.44-3.62v-6.4c0-.63,0-1.16.02-1.61-.03-.16-.02-.33.03-.5.05-.6.16-1.06.39-1.51.39-.76.99-1.36,1.75-1.75C3.04,0,3.96,0,5.8,0h10.4C18.04,0,18.96,0,19.82.44c.76.39,1.36.99,1.75,1.75.23.44.33.91.39,1.51.05.16.06.33.03.5.02.45.02.98.02,1.61v6.4c0,1.84,0,2.76-.44,3.62-.38.76-.99,1.36-1.75,1.75-.86.44-1.78.44-3.62.44ZM2.56,15.39c.15.16.33.29.53.39.43.22,1.24.22,2.71.22h10.4c1.47,0,2.28,0,2.71-.22.2-.1.38-.23.53-.39l-5.66-5.11-.37.26c-.74.52-1.14.8-1.68.93-.48.12-.98.12-1.45,0-.54-.13-.94-.42-1.68-.93l-.37-.26-5.66,5.11ZM2,5.92v6.28c0,.37,0,.71,0,1l4.54-4.1-4.54-3.18ZM15.46,9.1l4.54,4.1c0-.29,0-.62,0-1v-6.28l-4.54,3.18ZM8.73,8.19l1.01.7c.53.37.84.59,1.02.63.16.04.33.04.48,0,.18-.04.49-.27,1.02-.63l7.66-5.36c-.03-.18-.08-.33-.13-.45-.19-.38-.5-.68-.87-.87-.43-.22-1.24-.22-2.71-.22H5.8c-1.47,0-2.28,0-2.71.22-.38.19-.68.5-.87.87-.06.12-.1.26-.14.45l6.62,4.63s.02.01.03.02Z"/>
</svg>