<?xml version="1.0" encoding="UTF-8"?>
<svg xmlns="http://www.w3.org/2000/svg" version="1.1" viewBox="0 0 23 22">
  <path fill="#00b07d" d="M4,22c-.55,0-1-.45-1-1v-1.5h-1.5c-.55,0-1-.45-1-1s.45-1,1-1h1.5v-1.5c0-.55.45-1,1-1s1,.45,1,1v1.5h1.5c.55,0,1,.45,1,1s-.45,1-1,1h-1.5v1.5c0,.55-.45,1-1,1ZM12.5,21c-.41,0-.78-.25-.93-.64l-1.73-4.51c-.27-.7-.38-.99-.52-1.19-.13-.18-.29-.34-.47-.47-.21-.15-.53-.27-1.18-.52l-4.52-1.74c-.39-.15-.64-.52-.64-.93s.25-.78.64-.93l4.51-1.73c.7-.27.99-.38,1.19-.52.18-.13.34-.29.47-.47.14-.2.26-.49.52-1.19l1.73-4.51c.15-.39.52-.64.93-.64s.79.25.93.64l1.73,4.51c.25.66.38.98.52,1.19.13.18.29.34.47.47.2.14.49.26,1.19.52l4.51,1.73c.39.15.64.52.64.93s-.25.78-.64.93l-4.51,1.73c-.66.25-.98.38-1.19.52-.18.13-.34.29-.47.47-.15.21-.27.53-.52,1.18l-1.74,4.52c-.15.39-.52.64-.93.64ZM6.29,11l2.08.8c.79.3,1.22.47,1.63.76.36.26.68.57.94.94.29.41.46.84.76,1.63l.8,2.08.8-2.08c.3-.79.47-1.22.76-1.63.26-.36.58-.68.94-.94.41-.29.84-.46,1.62-.76l2.09-.8-2.08-.8c-.78-.3-1.21-.47-1.63-.76-.37-.26-.68-.58-.94-.94-.29-.41-.46-.84-.76-1.62l-.8-2.09-.8,2.08c-.3.78-.47,1.22-.76,1.63-.26.37-.58.68-.94.94-.41.29-.84.46-1.63.76l-2.08.8ZM4,7c-.55,0-1-.45-1-1v-1.5h-1.5c-.55,0-1-.45-1-1s.45-1,1-1h1.5v-1.5c0-.55.45-1,1-1s1,.45,1,1v1.5h1.5c.55,0,1,.45,1,1s-.45,1-1,1h-1.5v1.5c0,.55-.45,1-1,1Z"/>
</svg>