<?xml version="1.0" encoding="UTF-8"?>
<svg xmlns="http://www.w3.org/2000/svg" version="1.1" viewBox="0 0 21 21">
  <path d="M14.2,21H5.8c-1.84,0-2.76,0-3.62-.44-.76-.38-1.36-.99-1.75-1.75-.44-.86-.44-1.78-.44-3.62V6.8c0-1.84,0-2.76.44-3.62.39-.76.99-1.36,1.75-1.75.86-.44,1.78-.44,3.62-.44h3.2c.55,0,1,.45,1,1s-.45,1-1,1h-3.2c-1.47,0-2.28,0-2.71.22-.38.19-.68.5-.87.87-.22.43-.22,1.24-.22,2.71v4.66c3.49.29,7-1.01,9.47-3.46h-1.47c-.55,0-1-.45-1-1s.45-1,1-1h4c.55,0,1,.45,1,1v4c0,.55-.45,1-1,1s-1-.45-1-1v-1.7c-2.84,2.9-6.91,4.45-11,4.17v1.74c0,1.47,0,2.28.22,2.71.19.38.5.68.87.87.43.22,1.24.22,2.71.22h8.4c1.47,0,2.28,0,2.71-.22.38-.19.68-.49.87-.87.22-.43.22-1.24.22-2.71v-3.2c0-.55.45-1,1-1s1,.45,1,1v3.2c0,1.84,0,2.76-.44,3.62-.39.76-.99,1.36-1.75,1.75-.86.44-1.78.44-3.62.44ZM20.01,8.5h-1.5c-.55,0-1-.45-1-1s.45-1,1-1h1.5c.55,0,1,.45,1,1s-.45,1-1,1ZM17.44,4.56c-.26,0-.51-.1-.71-.29-.39-.39-.39-1.02,0-1.41l1.06-1.06c.39-.39,1.02-.39,1.41,0s.39,1.02,0,1.41l-1.06,1.06c-.2.2-.45.29-.71.29ZM13.5,3.5c-.55,0-1-.45-1-1v-1.5c0-.55.45-1,1-1s1,.45,1,1v1.5c0,.55-.45,1-1,1Z"/>
</svg>