<?xml version="1.0" encoding="UTF-8"?>
<svg xmlns="http://www.w3.org/2000/svg" version="1.1" viewBox="0 0 20 20">
  <path d="M19,20H4.2c-1.24,0-1.92,0-2.56-.33-.57-.29-1.02-.74-1.31-1.31-.33-.64-.33-1.33-.33-2.56V1C0,.45.45,0,1,0s1,.45,1,1v14.8c0,.87,0,1.44.11,1.65.1.19.25.34.44.44.21.11.79.11,1.65.11h14.8c.55,0,1,.45,1,1s-.45,1-1,1ZM18.5,16.5c-.55,0-1-.45-1-1V3.5c0-.55.45-1,1-1s1,.45,1,1v12c0,.55-.45,1-1,1ZM14,16.5c-.55,0-1-.45-1-1V6.5c0-.55.45-1,1-1s1,.45,1,1v9c0,.55-.45,1-1,1ZM9.5,16.5c-.55,0-1-.45-1-1v-6c0-.55.45-1,1-1s1,.45,1,1v6c0,.55-.45,1-1,1ZM5,16.5c-.55,0-1-.45-1-1v-3c0-.55.45-1,1-1s1,.45,1,1v3c0,.55-.45,1-1,1Z"/>
</svg>