<?xml version="1.0" encoding="UTF-8"?>
<svg xmlns="http://www.w3.org/2000/svg" version="1.1" viewBox="0 0 23 20">
  <path fill="#00b07d" d="M20,20c-.55,0-1-.45-1-1s.45-1,1-1c.22,0,.35.01.46-.01-.06-.04-.12-.12-.2-.25-.82-1.32-1.93-2.36-3.22-3.01-.49-.25-.69-.85-.44-1.34.25-.49.85-.69,1.34-.44,1.61.81,3,2.1,4.02,3.74.21.34.38.61.44,1.01.13.86-.39,1.81-1.2,2.15-.37.16-.71.16-1.21.16ZM14.68,20H3.32c-.87,0-1.44,0-1.98-.4-.44-.33-.76-.93-.79-1.48-.04-.67.27-1.14.67-1.73h0c1.86-2.79,4.69-4.39,7.77-4.39s5.92,1.6,7.77,4.38c.4.6.71,1.07.67,1.74-.03.55-.35,1.14-.79,1.47-.54.41-1.11.41-1.98.41ZM2.58,17.98c.16.02.47.02.74.02h11.36c.27,0,.57,0,.73-.02-.04-.09-.17-.3-.3-.49-1.48-2.22-3.71-3.5-6.11-3.5s-4.63,1.27-6.11,3.49h0c-.12.18-.25.38-.31.49ZM9,11c-3.03,0-5.5-2.47-5.5-5.5S5.97,0,9,0s5.5,2.47,5.5,5.5-2.47,5.5-5.5,5.5ZM9,2c-1.93,0-3.5,1.57-3.5,3.5s1.57,3.5,3.5,3.5,3.5-1.57,3.5-3.5-1.57-3.5-3.5-3.5ZM15.5,10.53c-.37,0-.72-.2-.9-.55-.25-.49-.04-1.1.45-1.34,1.2-.6,1.95-1.8,1.95-3.14s-.75-2.54-1.95-3.14c-.49-.25-.7-.85-.45-1.34.25-.49.84-.7,1.34-.45,1.88.94,3.05,2.82,3.05,4.93s-1.17,3.99-3.05,4.93c-.14.07-.29.1-.44.1Z"/>
</svg>