<?xml version="1.0" encoding="UTF-8"?>
<svg xmlns="http://www.w3.org/2000/svg" version="1.1" viewBox="0 0 19 20">
  <path d="M1,20c-.55,0-1-.45-1-1V2c0-.08,0-.16.03-.23.03-.25.08-.46.19-.68.19-.38.5-.68.87-.87.43-.22.86-.22,1.51-.22h5.8c.65,0,1.08,0,1.51.22.38.19.68.5.87.87.14.28.19.56.21.91h5.41c.65,0,1.08,0,1.51.22.38.19.68.5.87.87.22.43.22.86.22,1.51v6.8c0,.65,0,1.08-.22,1.51-.19.38-.49.68-.87.87-.43.22-.86.22-1.51.22h-4.8c-.65,0-1.08,0-1.51-.22-.38-.19-.68-.49-.87-.87-.14-.28-.19-.57-.21-.92-.18,0-.38,0-.61,0H2v7c0,.55-.45,1-1,1ZM11,9.4v2c0,.28,0,.57.02.65.01-.05.3-.05.58-.05h4.8c.28,0,.57,0,.65-.02-.05-.01-.05-.3-.05-.58v-6.8c0-.28,0-.57-.02-.65-.01.05-.3.05-.58.05h-5.4v5.4ZM2,10h6.4c.24,0,.48,0,.6-.01V2.6c0-.28,0-.57-.02-.65-.01.05-.3.05-.58.05H2.6c-.24,0-.48,0-.6.01v7.99Z"/>
</svg>