<?xml version="1.0" encoding="UTF-8"?>
<svg xmlns="http://www.w3.org/2000/svg" version="1.1" viewBox="0 0 22 22">
  <path d="M12.63,21.71c-.12,0-.24-.01-.36-.03-.71-.12-1.28-.6-1.53-1.28l-.66-1.8c-1.5.34-3.1.05-4.41-.85l-2.46,2.46c-.39.39-1.02.39-1.41,0s-.39-1.02,0-1.41l2.44-2.44c-.95-1.33-1.26-2.97-.91-4.51l-1.8-.66c-.67-.25-1.15-.82-1.28-1.53-.12-.71.13-1.41.68-1.88l2.86-2.42c.53-.45,1.27-.59,1.92-.37l2.27.76,3.37-3.6c.51-.55,1.21-.92,1.95-1.04l4.91-.82c.95-.16,1.93.15,2.61.84.68.68,1,1.66.84,2.62l-.82,4.91c-.12.74-.49,1.43-1.04,1.95l-3.6,3.37.75,2.27c.22.66.08,1.39-.37,1.92l-2.42,2.86c-.39.46-.94.71-1.52.71ZM11.92,17.82l.7,1.89,2.42-2.86-.46-1.4-1.86,1.74c-.25.23-.51.44-.79.62ZM7.12,16.3c.96.52,2.11.58,3.11.16.03-.02.07-.03.11-.05,0,0,0,0,0,0,.36-.16.69-.38,1-.67l2.99-2.8s.02-.02.03-.03l4-3.74c-.75-1.09-1.61-2.12-2.56-3.08-.94-.94-1.97-1.8-3.05-2.54l-3.74,4s-.02.02-.03.03l-2.79,2.99c-.28.3-.51.64-.67,1,0,0,0,0,0,0-.01.04-.03.07-.05.11-.43,1.04-.35,2.23.22,3.21l5.61-5.61c.39-.39,1.02-.39,1.41,0s.39,1.02,0,1.41l-5.59,5.59ZM5.06,6.89l-2.86,2.42,1.89.7c.18-.27.38-.54.62-.79l1.74-1.86-1.4-.46ZM15.11,2.82c.73.58,1.43,1.2,2.09,1.86s1.31,1.38,1.89,2.13l.57-3.4c.05-.32-.05-.64-.28-.87-.23-.23-.55-.33-.87-.28l-3.4.57Z"/>
</svg>