<?xml version="1.0" encoding="UTF-8"?>
<svg xmlns="http://www.w3.org/2000/svg" version="1.1" viewBox="0 0 20 20">
  <path d="M3.75,19.17c-.46,0-.83-.37-.83-.83v-1.25h-1.25c-.46,0-.83-.37-.83-.83s.37-.83.83-.83h1.25v-1.25c0-.46.37-.83.83-.83s.83.37.83.83v1.25h1.25c.46,0,.83.37.83.83s-.37.83-.83.83h-1.25v1.25c0,.46-.37.83-.83.83ZM10.83,18.33c-.35,0-.66-.21-.78-.54l-1.44-3.76c-.21-.55-.32-.82-.44-.99-.11-.15-.24-.28-.39-.39-.17-.12-.42-.22-.99-.44l-3.76-1.45c-.32-.12-.54-.43-.54-.78s.21-.66.54-.78l3.76-1.45c.58-.22.82-.32.99-.44.15-.11.28-.24.39-.39.12-.17.23-.44.43-.98l1.45-3.77c.12-.32.43-.54.78-.54s.66.21.78.54l1.44,3.76c.21.55.32.82.44.99.11.15.24.29.39.39.17.12.42.22.99.44l3.76,1.45c.32.12.54.43.54.78s-.21.66-.54.78l-3.76,1.45c-.57.22-.82.32-.99.44-.15.11-.28.24-.39.39-.12.17-.23.44-.43.98l-1.45,3.77c-.12.32-.43.54-.78.54ZM5.66,10l1.73.67c.65.25,1.01.39,1.36.63.31.22.57.48.79.79.24.34.38.69.63,1.34l.67,1.75.67-1.73c.25-.66.39-1.02.64-1.36.21-.3.48-.56.78-.78.35-.25.73-.39,1.36-.64l1.73-.67-1.73-.67c-.65-.25-1.01-.39-1.36-.63-.31-.22-.57-.48-.79-.79-.24-.34-.38-.69-.63-1.34l-.67-1.74-.67,1.73c-.25.66-.39,1.02-.64,1.36-.21.3-.48.57-.78.78-.34.24-.7.38-1.36.63l-1.73.67ZM3.75,6.67c-.46,0-.83-.37-.83-.83v-1.25h-1.25c-.46,0-.83-.37-.83-.83s.37-.83.83-.83h1.25v-1.25c0-.46.37-.83.83-.83s.83.37.83.83v1.25h1.25c.46,0,.83.37.83.83s-.37.83-.83.83h-1.25v1.25c0,.46-.37.83-.83.83Z"/>
</svg>