<?xml version="1.0" encoding="UTF-8"?>
<svg xmlns="http://www.w3.org/2000/svg" version="1.1" viewBox="0 0 20 19">
  <path d="M6.46,18.17c-.18,0-.27,0-.36,0-1-.08-1.85-.75-2.17-1.69-.03-.08-.05-.17-.1-.35l-1.31-5.22c-1.03-.84-1.7-2.12-1.7-3.56C.83,4.81,2.89,2.75,5.42,2.75h3.12c1.05,0,2.53-.5,4.26-1.44,1-.54,1.46-.79,1.98-.73.48.06.87.29,1.15.68.31.44.31.96.31,2.01v.4c1.67.38,2.92,1.88,2.92,3.66s-1.25,3.28-2.92,3.66v.4c0,1.05,0,1.57-.31,2.01-.28.39-.68.63-1.16.69-.54.06-.99-.18-1.98-.73-1.41-.77-2.65-1.25-3.64-1.39v3.49c0,.23,0,.35-.01.45-.11,1.19-1.06,2.13-2.25,2.25-.1,0-.21.01-.45.01ZM6.46,16.5c.15,0,.22,0,.29,0,.39-.04.71-.35.75-.75,0-.06,0-.14,0-.29v-3.54h-2.08c-.32,0-.63-.03-.93-.1l.97,3.89c.03.11.04.17.06.22.11.32.39.54.72.56.05,0,.11,0,.23,0ZM9.17,10.29c1.24.14,2.73.68,4.44,1.61.38.21.77.42.97.5,0-.15,0-.58,0-1V3.27c0-.39,0-.79-.02-1-.21.09-.58.29-.95.49-1.71.93-3.2,1.47-4.44,1.61v5.9ZM5.42,4.42c-1.61,0-2.92,1.31-2.92,2.92s1.31,2.91,2.92,2.91h2.08v-5.83h-2.08ZM16.25,5.43v3.81c.73-.32,1.25-1.06,1.25-1.91s-.51-1.58-1.25-1.91Z"/>
</svg>