<?xml version="1.0" encoding="UTF-8"?>
<svg xmlns="http://www.w3.org/2000/svg" version="1.1" viewBox="0 0 21 22">
  <path d="M16,22H6c-.55,0-1-.45-1-1s.45-1,1-1h4v-1.02c-2.21-.1-4.39-.9-6.18-2.38l-1.45,1.45c-.39.39-1.02.39-1.41,0s-.39-1.02,0-1.41l3.94-3.94c-.88-1.17-1.4-2.62-1.4-4.19,0-3.86,3.14-7,7-7s7,3.14,7,7-3.14,7-7,7c-1.57,0-3.02-.52-4.19-1.4l-1.07,1.07c3.33,2.63,8.2,2.41,11.27-.67,3.31-3.31,3.31-8.71,0-12.02-.39-.39-.39-1.02,0-1.41.39-.39,1.02-.39,1.41,0,4.09,4.09,4.09,10.76,0,14.85-1.67,1.67-3.75,2.65-5.92,2.96v1.11h4c.55,0,1,.45,1,1s-.45,1-1,1ZM10.5,3.5c-2.76,0-5,2.24-5,5s2.24,5,5,5,5-2.24,5-5-2.24-5-5-5Z"/>
</svg>