<?xml version="1.0" encoding="UTF-8"?>
<svg xmlns="http://www.w3.org/2000/svg" version="1.1" viewBox="0 0 18 17">
  <path d="M9.42,16.5c-.98,0-1.94-.18-2.85-.53-.09-.03-.14-.05-.18-.07,0,0-.05.01-.12.02l-4.27.44c-.52.05-.89.09-1.25-.13-.32-.2-.53-.51-.58-.88-.06-.42.1-.73.36-1.2l1.36-2.53c.06-.12.1-.18.13-.24-.02-.02-.05-.12-.11-.28-.27-.81-.41-1.67-.41-2.53C1.5,4.22,5.05.67,9.42.67s7.92,3.55,7.92,7.92-3.55,7.92-7.92,7.92ZM6.42,14.24h.05c.12,0,.2.02.31.04.09.02.19.05.39.13.71.28,1.47.42,2.25.42,3.45,0,6.25-2.8,6.25-6.25s-2.8-6.25-6.25-6.25-6.25,2.8-6.25,6.25c0,.68.11,1.36.33,2,.1.31.17.5.19.7.02.2,0,.36-.05.54-.05.2-.14.36-.26.6l-1.21,2.25,3.95-.41c.15-.02.25-.02.32-.02ZM1.42,14.74h0Z"/>
</svg>