<?xml version="1.0" encoding="UTF-8"?>
<svg xmlns="http://www.w3.org/2000/svg" version="1.1" viewBox="0 0 993 311">
  <path d="M63.44,27.39h126.94V0H63.44v27.39ZM643.46,174.1h-88.78v-91.02h88.78c31.63,0,52.89,18.29,52.89,45.51s-21.26,45.51-52.89,45.51M672.87,195.39c30.46-8.69,50.14-34.91,50.14-66.8,0-41.4-31.97-69.21-79.55-69.21h-115.43v244.66h26.65v-105.87h90.3l57.5,105.87h28.83l-59.95-108.22,1.51-.43ZM389.67,308.65c65.35,0,110.99-45.9,110.99-111.63V59.38h-27.39v135.79c0,50.69-34.38,86.09-83.6,86.09-40.8,0-84.71-26.94-84.71-86.09V59.38h-27.38v137.64c0,65.73,46.09,111.63,112.09,111.63M867.86,91.3l57.76,126.33h-115.88l58.13-126.33ZM855.01,59.39l-111.85,244.66h28.61l27.66-62.71h136.49l27.67,62.71h28.6l-111.85-244.66h-25.33ZM126.94,54.78C56.94,54.78,0,111.72,0,181.71s56.94,126.94,126.94,126.94,126.94-56.94,126.94-126.94-56.94-126.94-126.94-126.94M126.94,281.27c-54.89,0-99.55-44.66-99.55-99.55s44.66-99.55,99.55-99.55,99.56,44.66,99.56,99.55-44.66,99.55-99.56,99.55"/>
</svg>