<?xml version="1.0" encoding="UTF-8"?>
<svg xmlns="http://www.w3.org/2000/svg" version="1.1" viewBox="0 0 18 22">
  <path fill="#00b07d" d="M12.2,22h-6.4c-1.84,0-2.76,0-3.62-.44-.76-.38-1.36-.99-1.75-1.75-.44-.86-.44-1.78-.44-3.62V5.8c0-1.84,0-2.76.44-3.62.39-.76.99-1.36,1.75-1.75.86-.44,1.78-.44,3.62-.44h3.21c.79,0,1.22,0,1.68.11.24.06.48.14.71.24,0,0,.01,0,.02,0,.14.07.29.14.42.22.4.25.7.55,1.25,1.09l3.21,3.21c.55.55.86.86,1.11,1.27.22.36.38.75.48,1.16.11.46.11.89.11,1.68v7.21c0,1.84,0,2.76-.44,3.62-.39.76-.99,1.36-1.75,1.75-.86.44-1.78.44-3.62.44ZM5.8,2c-1.47,0-2.28,0-2.71.22-.38.19-.68.5-.87.87-.22.43-.22,1.24-.22,2.71v10.4c0,1.47,0,2.28.22,2.71.19.38.5.68.87.87.43.22,1.24.22,2.71.22h6.4c1.47,0,2.28,0,2.71-.22.38-.19.68-.49.87-.87.22-.43.22-1.24.22-2.71v-7.21c0-.47,0-.77-.02-.99h-3.38c-.65,0-1.08,0-1.51-.22-.38-.19-.68-.49-.87-.87-.22-.43-.22-.86-.22-1.51v-3.38c-.22-.02-.52-.02-.99-.02h-3.21ZM12,3.41v1.99c0,.28,0,.57.02.65.01-.05.3-.05.58-.05h1.99l-2.58-2.59ZM11,17.5c-.26,0-.51-.1-.71-.29-.39-.39-.39-1.02,0-1.41l1.79-1.79-1.79-1.79c-.39-.39-.39-1.02,0-1.41s1.02-.39,1.41,0l2.5,2.5c.39.39.39,1.02,0,1.41l-2.5,2.5c-.2.2-.45.29-.71.29ZM7,17.5c-.26,0-.51-.1-.71-.29l-2.5-2.5c-.39-.39-.39-1.02,0-1.41l2.5-2.5c.39-.39,1.02-.39,1.41,0s.39,1.02,0,1.41l-1.79,1.79,1.79,1.79c.39.39.39,1.02,0,1.41-.2.2-.45.29-.71.29Z"/>
</svg>