<?xml version="1.0" encoding="UTF-8"?>
<svg xmlns="http://www.w3.org/2000/svg" version="1.1" viewBox="0 0 22 20">
  <path fill="#00b07d" d="M14,20h-6c-.55,0-1-.45-1-1v-3h-2.8c-1.24,0-1.92,0-2.56-.33-.57-.29-1.02-.74-1.31-1.31-.33-.64-.33-1.33-.33-2.56v-7.6c0-1.24,0-1.92.33-2.56.29-.57.74-1.02,1.31-1.31.64-.33,1.33-.33,2.56-.33h13.6c1.24,0,1.92,0,2.56.33.57.29,1.02.74,1.31,1.31.33.64.33,1.33.33,2.56v7.6c0,1.24,0,1.92-.33,2.56-.29.57-.74,1.02-1.31,1.31-.64.33-1.33.33-2.56.33h-2.8v3c0,.55-.45,1-1,1ZM9,18h4v-2h-4v2ZM4.2,2c-.87,0-1.44,0-1.66.11-.19.1-.34.25-.44.44-.11.21-.11.79-.11,1.65v7.6c0,.87,0,1.44.11,1.65.1.19.25.34.44.44.21.11.79.11,1.65.11h13.6c.87,0,1.44,0,1.65-.11.19-.1.34-.25.44-.44.11-.21.11-.79.11-1.65v-7.6c0-.87,0-1.44-.11-1.66-.1-.19-.25-.34-.44-.44-.21-.11-.79-.11-1.65-.11H4.2Z"/>
</svg>