<?xml version="1.0" encoding="UTF-8"?>
<svg xmlns="http://www.w3.org/2000/svg" version="1.1" viewBox="0 0 286 140">
  <defs>
    <style>
      .st0 {
        fill: #34a0da;
      }

      .st1 {
        fill: #e64619;
      }

      .st2 {
        fill: #737373;
      }

      .st3 {
        fill: #82b729;
      }

      .st4 {
        fill: #787878;
      }

      .st5 {
        fill: #f9b801;
      }
    </style>
  </defs>
  <polyline class="st4" points="101.23 2.97 101.23 29.73 96.52 29.73 96.52 8.76 96.45 8.76 88.04 29.73 84.92 29.73 76.3 8.76 76.24 8.76 76.24 29.73 71.89 29.73 71.89 2.97 78.64 2.97 86.43 22.81 86.54 22.81 94.76 2.97 101.23 2.97"/>
  <path class="st4" d="M110.21,29.73h-4.57V10.55h4.57v19.18M105.16,5.01c-.01-.72.29-1.4.82-1.88.53-.5,1.23-.77,1.96-.76.74-.02,1.46.26,2,.77.51.48.8,1.15.79,1.86.01.71-.29,1.38-.81,1.85-.54.5-1.25.76-1.99.75-.73.02-1.44-.25-1.98-.76-.52-.47-.81-1.14-.8-1.84"/>
  <path class="st4" d="M124,26.45c.77-.02,1.53-.18,2.25-.47.81-.31,1.57-.72,2.27-1.23v4.2c-.78.43-1.62.74-2.49.93-1,.22-2.03.33-3.05.32-2.59.1-5.12-.86-6.97-2.68-1.8-1.81-2.77-4.29-2.68-6.84-.1-2.8.88-5.53,2.74-7.62,1.83-2,4.42-3,7.77-3,.88,0,1.75.11,2.6.33.73.16,1.43.42,2.09.76v4.33c-.67-.49-1.39-.89-2.16-1.18-.72-.28-1.49-.42-2.26-.42-1.64-.07-3.22.56-4.37,1.74-1.15,1.28-1.75,2.96-1.66,4.68-.1,1.67.48,3.3,1.6,4.53,1.16,1.12,2.73,1.71,4.34,1.62"/>
  <path class="st4" d="M141.54,10.23c.33,0,.66.02.98.07.25.04.5.1.74.19v4.57c-.32-.22-.68-.38-1.05-.49-.54-.17-1.11-.25-1.67-.23-1.12,0-2.17.51-2.84,1.4-.87,1.26-1.28,2.78-1.16,4.31v9.68h-4.57V10.55h4.57v3.02h.07c.37-.99,1.03-1.84,1.89-2.45.9-.61,1.96-.92,3.04-.89"/>
  <path class="st4" d="M148.29,20.27c-.11,1.65.38,3.28,1.38,4.59,1.01,1.1,2.46,1.68,3.95,1.59,1.45.09,2.85-.49,3.8-1.59.96-1.37,1.42-3.03,1.3-4.7.12-1.67-.36-3.33-1.35-4.68-.96-1.08-2.35-1.66-3.79-1.58-1.49-.08-2.92.53-3.9,1.65-1.01,1.36-1.5,3.03-1.39,4.71M143.53,20.42c-.15-2.78.83-5.5,2.72-7.54,2.02-1.94,4.76-2.94,7.56-2.78,2.64-.15,5.23.82,7.12,2.68,1.78,1.98,2.7,4.58,2.56,7.23.14,2.74-.85,5.42-2.72,7.43-1.98,1.91-4.66,2.91-7.41,2.76-2.65.14-5.24-.81-7.17-2.62-1.84-1.92-2.8-4.51-2.65-7.16"/>
  <path class="st4" d="M170.29,15.59c-.03.57.2,1.13.62,1.52.85.59,1.78,1.06,2.76,1.39,1.46.48,2.78,1.32,3.85,2.43.75.93,1.14,2.09,1.11,3.27.05,1.71-.74,3.33-2.11,4.35-1.66,1.17-3.67,1.75-5.7,1.64-.9,0-1.79-.11-2.67-.29-.85-.16-1.69-.4-2.49-.74v-4.44c.83.57,1.73,1.03,2.68,1.36.83.31,1.72.48,2.61.5.79.05,1.57-.1,2.29-.43.5-.3.79-.86.74-1.44,0-.62-.28-1.2-.77-1.58-.89-.63-1.87-1.13-2.9-1.48-1.37-.48-2.6-1.29-3.59-2.35-.73-.95-1.11-2.12-1.06-3.32-.03-1.67.75-3.26,2.09-4.26,1.56-1.17,3.47-1.76,5.41-1.67.77,0,1.53.08,2.29.22.72.12,1.43.31,2.12.58v4.3c-.66-.43-1.37-.77-2.12-1.03-.77-.28-1.58-.42-2.4-.43-.71-.04-1.42.13-2.03.5-.47.3-.74.83-.73,1.38"/>
  <g>
    <path class="st4" d="M185.39,20.27c-.11,1.65.38,3.28,1.38,4.59,1.01,1.1,2.46,1.68,3.95,1.59,1.45.09,2.85-.49,3.8-1.59.96-1.37,1.42-3.03,1.3-4.7.12-1.67-.36-3.33-1.35-4.68-.96-1.08-2.35-1.66-3.79-1.58-1.49-.08-2.92.53-3.9,1.65-1.01,1.36-1.5,3.03-1.39,4.71M180.63,20.42c-.15-2.78.83-5.5,2.72-7.54,2.02-1.94,4.76-2.94,7.56-2.78,2.64-.15,5.23.82,7.12,2.68,1.78,1.98,2.7,4.58,2.56,7.23.14,2.74-.84,5.42-2.72,7.43-1.98,1.91-4.66,2.91-7.41,2.76-2.65.14-5.24-.81-7.17-2.62-1.84-1.92-2.8-4.51-2.66-7.16"/>
    <path class="st4" d="M211.32.99c.49,0,.98.02,1.47.08.38.05.76.13,1.13.25v3.9c-.25-.13-.52-.24-.79-.32-.42-.13-.86-.19-1.3-.19-.83-.05-1.64.27-2.21.89-.57.75-.84,1.68-.78,2.62v2.32h4.33v3.69h-4.33v15.49h-4.64v-15.49h-3.25v-3.69h3.25v-2.67c-.06-1.86.66-3.66,1.99-4.96,1.37-1.31,3.22-2,5.11-1.93"/>
  </g>
  <path class="st4" d="M223,26.45c.33-.01.65-.07.96-.19.34-.11.67-.26.97-.45v3.73c-.46.22-.95.37-1.45.45-.66.14-1.32.2-1.99.21-1.59.12-3.17-.43-4.34-1.52-1.06-1.28-1.58-2.93-1.45-4.58v-9.85h-3.19v-3.7h3.19v-4.31l4.59-1.38v5.69h4.63v3.7h-4.63v8.97c-.09.88.15,1.77.65,2.5.55.53,1.29.79,2.05.73"/>
  <g>
    <path class="st4" d="M71.17,55.94v-2.87c.28.25.6.46.93.63.37.19.75.35,1.15.47.4.13.8.23,1.21.3.37.07.74.1,1.12.1.92.06,1.84-.14,2.65-.59.57-.37.9-1.02.87-1.7,0-.37-.09-.73-.29-1.04-.22-.32-.49-.59-.81-.8-.39-.27-.8-.5-1.23-.7-.47-.22-.98-.46-1.51-.7-.58-.31-1.12-.61-1.62-.93-.47-.29-.91-.64-1.3-1.04-.36-.37-.66-.81-.87-1.28-.22-.53-.33-1.1-.31-1.68-.02-.72.17-1.44.54-2.06.36-.58.85-1.07,1.43-1.44.62-.39,1.3-.68,2.01-.84.75-.18,1.53-.28,2.3-.28,1.33-.08,2.65.13,3.89.6v2.76c-1.1-.73-2.41-1.09-3.73-1.03-.42,0-.84.04-1.25.12-.39.07-.77.2-1.12.39-.31.17-.59.4-.8.69-.21.3-.32.66-.31,1.02,0,.34.07.68.24.97.18.29.41.55.69.75.35.25.72.48,1.12.66.44.21.95.45,1.53.7.59.31,1.15.63,1.68.96.5.32.97.69,1.39,1.11.39.39.71.85.95,1.35.24.53.36,1.11.35,1.69.07,1.46-.67,2.84-1.93,3.59-.63.38-1.32.65-2.04.8-.8.17-1.62.25-2.44.25-.28,0-.63-.02-1.05-.06-.42-.04-.84-.11-1.28-.19-.42-.08-.83-.18-1.23-.3-.33-.09-.64-.23-.94-.4"/>
    <path class="st4" d="M89.93,46.49c-.98-.04-1.92.37-2.55,1.11-.67.88-1,1.97-.94,3.07-.06,1.07.28,2.13.95,2.97.64.73,1.57,1.12,2.54,1.08.95.06,1.88-.34,2.5-1.07.63-.88.94-1.95.87-3.04.07-1.09-.24-2.17-.87-3.06-.62-.74-1.54-1.14-2.5-1.08M89.8,56.89c-3.19.22-5.95-2.18-6.17-5.37-.02-.26-.02-.52,0-.77-.1-1.75.53-3.46,1.75-4.73,1.28-1.18,2.98-1.79,4.72-1.7,1.65-.1,3.26.5,4.44,1.65,1.12,1.26,1.69,2.91,1.59,4.59.23,3.27-2.23,6.1-5.5,6.33-.28.02-.55.02-.83,0"/>
    <polyline class="st4" points="98.93 38.83 101.69 38.83 101.69 56.61 98.93 56.61 98.93 38.83"/>
    <path class="st4" d="M115.89,56.61h-2.76v-1.9h-.05c-.71,1.4-2.17,2.25-3.73,2.18-2.87,0-4.31-1.7-4.31-5.11v-7.18h2.76v6.9c0,2.16.84,3.24,2.53,3.24.77.02,1.51-.31,2.01-.89.55-.65.83-1.48.79-2.33v-6.91h2.76v12.01"/>
    <path class="st4" d="M125.89,56.48c-.67.29-1.4.43-2.13.4-2.36,0-3.54-1.12-3.54-3.35v-6.79h-2.03v-2.13h2.03v-2.78l2.75-.77v3.55h2.91v2.13h-2.91v6c-.05.54.09,1.08.39,1.52.35.34.82.5,1.31.46.44,0,.87-.13,1.21-.4v2.16"/>
    <path class="st4" d="M131.02,56.61h-2.76v-12.01h2.76v12.01M129.65,42.08c-.43,0-.84-.15-1.16-.43-.32-.28-.49-.68-.48-1.1-.01-.42.17-.83.48-1.11.31-.29.73-.45,1.16-.45.44-.01.86.15,1.19.45.32.28.5.69.49,1.11,0,.42-.17.81-.49,1.08-.32.3-.75.46-1.19.45"/>
    <path class="st4" d="M140.14,46.49c-.98-.04-1.92.37-2.55,1.11-.67.88-1,1.97-.94,3.07-.06,1.07.28,2.13.95,2.97.64.73,1.58,1.12,2.54,1.08.96.06,1.88-.34,2.5-1.07.63-.88.94-1.95.87-3.04.07-1.09-.24-2.17-.87-3.06-.62-.74-1.54-1.14-2.5-1.08M140,56.89c-3.19.22-5.95-2.18-6.17-5.37-.02-.26-.02-.52,0-.77-.1-1.75.53-3.46,1.75-4.73,1.28-1.18,2.98-1.79,4.72-1.7,1.65-.1,3.26.5,4.44,1.65,1.12,1.26,1.69,2.91,1.59,4.59.23,3.27-2.23,6.1-5.5,6.33-.28.02-.55.02-.83,0"/>
    <path class="st4" d="M159.97,56.61h-2.76v-6.77c0-2.24-.8-3.37-2.41-3.37-.8-.02-1.56.32-2.08.93-.56.65-.85,1.49-.82,2.35v6.85h-2.77v-12.01h2.76v1.99h.05c.78-1.44,2.31-2.32,3.94-2.28,1.15-.07,2.27.4,3.03,1.27.76,1.07,1.13,2.37,1.04,3.68v7.34"/>
    <path class="st4" d="M162.57,56.23v-2.52c.98.76,2.17,1.16,3.41,1.16,1.66,0,2.49-.48,2.49-1.45,0-.25-.07-.5-.21-.7-.16-.21-.35-.38-.58-.51-.27-.16-.56-.3-.85-.4-.33-.12-.7-.25-1.1-.4-.46-.18-.91-.39-1.35-.62-.37-.19-.71-.45-1-.74-.26-.27-.47-.59-.6-.94-.14-.39-.21-.81-.2-1.23-.01-.54.13-1.07.41-1.53.28-.45.67-.83,1.12-1.11.49-.31,1.03-.54,1.59-.68.6-.15,1.22-.23,1.84-.23,1.03-.02,2.05.15,3.02.5v2.38c-.87-.58-1.9-.89-2.95-.87-.32,0-.63.03-.94.11-.25.06-.5.16-.72.29-.19.11-.35.27-.46.45-.11.17-.17.37-.17.58,0,.23.05.46.17.66.12.19.29.36.49.48.25.15.51.28.78.38.31.11.65.24,1.05.37.48.19.95.41,1.41.65.39.2.74.45,1.06.74.29.27.52.6.68.96.17.41.25.85.24,1.3.01.56-.14,1.12-.43,1.6-.29.46-.68.84-1.14,1.13-.51.31-1.06.53-1.65.66-.64.15-1.3.22-1.96.22-1.19.03-2.36-.2-3.46-.66"/>
    <path class="st4" d="M183.62,42.09v6.14h1.83c.99.07,1.98-.23,2.77-.83.65-.6,1-1.46.95-2.35,0-1.98-1.16-2.97-3.49-2.97h-2.06M183.62,50.51v6.1h-2.82v-16.82h5.17c1.63-.1,3.24.38,4.55,1.35,1.1.95,1.69,2.35,1.62,3.8.05,1.52-.57,2.98-1.69,4.01-1.26,1.09-2.9,1.65-4.56,1.56h-2.27"/>
    <path class="st4" d="M200.69,50.71l-2.55.35c-.63.05-1.24.24-1.79.57-.43.35-.66.9-.6,1.46-.01.48.19.94.55,1.25.42.34.94.51,1.48.49.79.02,1.55-.3,2.08-.87.55-.6.85-1.39.83-2.2v-1.04M203.35,56.61h-2.67v-1.88h-.05c-.72,1.37-2.15,2.21-3.69,2.16-1.03.06-2.03-.29-2.81-.96-.69-.66-1.06-1.59-1.02-2.54,0-2.27,1.32-3.59,3.97-3.96l3.61-.5c0-1.71-.82-2.57-2.47-2.57-1.44,0-2.84.52-3.92,1.48v-2.39c1.35-.77,2.89-1.16,4.44-1.13,3.07,0,4.61,1.49,4.61,4.48v7.81"/>
    <path class="st4" d="M213.76,47.19c-.42-.28-.93-.42-1.44-.39-.82,0-1.59.41-2.04,1.09-.59.87-.88,1.91-.82,2.97v5.75h-2.76v-12.01h2.76v2.47h.05c.22-.76.65-1.45,1.24-1.98.52-.46,1.18-.71,1.87-.71.39-.02.78.05,1.14.22v2.58"/>
    <path class="st4" d="M222.82,56.48c-.67.29-1.4.43-2.13.4-2.36,0-3.54-1.12-3.54-3.35v-6.79h-2.03v-2.13h2.03v-2.78l2.75-.77v3.55h2.91v2.13h-2.91v6c-.05.54.09,1.08.39,1.52.35.34.82.5,1.31.46.44,0,.86-.13,1.21-.4v2.16"/>
    <path class="st4" d="M236.03,56.61h-2.76v-6.77c0-2.24-.8-3.37-2.41-3.37-.8-.02-1.56.32-2.08.93-.56.65-.85,1.49-.82,2.35v6.85h-2.77v-12.01h2.76v1.99h.05c.78-1.44,2.3-2.32,3.94-2.28,1.15-.07,2.27.4,3.03,1.27.76,1.07,1.13,2.37,1.05,3.68v7.34"/>
    <path class="st4" d="M246.54,49.42c.04-.82-.21-1.63-.7-2.28-.47-.55-1.17-.85-1.9-.82-.76-.01-1.49.3-2.01.86-.57.62-.93,1.4-1.02,2.24h5.63M249.2,51.34h-8.29c-.03.96.35,1.9,1.04,2.57.76.64,1.74.96,2.73.9,1.28,0,2.54-.4,3.58-1.15v2.19c-1.34.75-2.86,1.1-4.39,1.03-1.57.09-3.11-.51-4.21-1.63-1.08-1.28-1.63-2.93-1.53-4.6-.07-1.69.54-3.33,1.68-4.57,1.07-1.16,2.59-1.8,4.17-1.77,1.46-.08,2.88.5,3.86,1.58.98,1.25,1.46,2.82,1.37,4.4v1.04"/>
  </g>
  <path class="st4" d="M258.88,47.19c-.42-.28-.93-.42-1.44-.39-.82,0-1.58.41-2.04,1.09-.59.87-.88,1.91-.82,2.97v5.75h-2.76v-12.01h2.76v2.47h.05c.22-.76.65-1.45,1.24-1.98.52-.46,1.18-.71,1.87-.71.39-.02.79.05,1.14.22v2.58"/>
  <polyline class="st1" points=".88 2.8 26.85 2.8 26.85 28.45 .88 28.45 .88 2.8"/>
  <polyline class="st3" points="29.55 2.8 55.52 2.8 55.52 28.45 29.55 28.45 29.55 2.8"/>
  <polyline class="st0" points=".88 31.11 26.85 31.11 26.85 56.76 .88 56.76 .88 31.11"/>
  <polyline class="st5" points="29.55 31.11 55.52 31.11 55.52 56.76 29.55 56.76 29.55 31.11"/>
  <path class="st2" d="M3.27,102.71v-18.21h5.03c6.42,0,9.62,2.96,9.62,8.87,0,2.81-.89,5.07-2.67,6.77-1.78,1.71-4.17,2.56-7.15,2.56H3.27M5.4,86.43v14.35h2.72c2.39,0,4.24-.64,5.57-1.92,1.33-1.28,1.99-3.09,1.99-5.43,0-4.66-2.48-7-7.44-7h-2.84"/>
  <path class="st2" d="M22.28,86.4c-.37,0-.69-.13-.95-.38-.26-.25-.39-.58-.39-.96s.13-.71.39-.97c.26-.26.58-.39.95-.39s.7.13.97.39c.27.26.4.58.4.97s-.13.69-.4.95c-.27.26-.59.39-.97.39h0M23.29,102.71h-2.08v-13h2.08v13"/>
  <path class="st2" d="M38.6,101.66c0,4.77-2.29,7.16-6.86,7.16-1.61,0-3.01-.3-4.21-.91v-2.08c1.46.81,2.86,1.22,4.19,1.22,3.2,0,4.8-1.7,4.8-5.1v-1.42h-.05c-.99,1.66-2.48,2.49-4.47,2.49-1.62,0-2.92-.58-3.9-1.73-.99-1.16-1.48-2.71-1.48-4.65,0-2.21.53-3.97,1.59-5.27,1.06-1.3,2.52-1.96,4.36-1.96s3.05.7,3.9,2.11h.05v-1.8h2.08v11.96h0M36.52,96.83v-1.92c0-1.03-.35-1.92-1.05-2.65-.7-.74-1.57-1.1-2.61-1.1-1.29,0-2.29.47-3.02,1.4-.73.94-1.09,2.24-1.09,3.93,0,1.45.35,2.6,1.05,3.47.7.87,1.62,1.3,2.77,1.3s2.12-.41,2.85-1.24c.73-.83,1.1-1.89,1.1-3.19"/>
  <path class="st2" d="M43.86,86.4c-.37,0-.69-.13-.95-.38-.26-.25-.39-.58-.39-.96s.13-.71.39-.97c.26-.26.58-.39.95-.39s.7.13.97.39c.27.26.4.58.4.97s-.13.69-.4.95c-.27.26-.59.39-.97.39h0M44.87,102.71h-2.08v-13h2.08v13"/>
  <path class="st2" d="M55.11,102.58c-.49.27-1.14.41-1.94.41-2.28,0-3.42-1.27-3.42-3.81v-7.69h-2.23v-1.78h2.23v-3.17l2.08-.67v3.85h3.28v1.78h-3.28v7.33c0,.87.15,1.49.44,1.87.3.37.79.56,1.47.56.52,0,.98-.14,1.36-.43v1.78"/>
  <path class="st2" d="M67.18,102.71h-2.08v-2.03h-.05c-.91,1.56-2.24,2.34-4,2.34-1.29,0-2.31-.34-3.04-1.03-.73-.69-1.1-1.6-1.1-2.73,0-2.43,1.43-3.84,4.29-4.24l3.9-.55c0-2.21-.89-3.31-2.68-3.31-1.57,0-2.98.53-4.24,1.6v-2.13c1.28-.81,2.75-1.22,4.42-1.22,3.06,0,4.58,1.62,4.58,4.85v8.46h0M65.1,96.13l-3.14.43c-.96.14-1.69.37-2.18.72-.49.34-.74.95-.74,1.82,0,.63.23,1.15.68,1.56.45.4,1.06.6,1.81.6,1.03,0,1.89-.36,2.56-1.09.67-.72,1.01-1.64,1.01-2.75v-1.29"/>
  <polyline class="st2" points="73.16 102.71 71.08 102.71 71.08 83.46 73.16 83.46 73.16 102.71"/>
  <path class="st2" d="M100.71,103c-.48,0-.91-.07-1.28-.2-.37-.13-.71-.32-1.02-.56s-.62-.54-.91-.88c-.29-.35-.6-.74-.92-1.18-.34.36-.73.72-1.17,1.05-.44.34-.94.64-1.48.9-.54.26-1.13.47-1.78.63s-1.34.23-2.09.23c-.91,0-1.75-.11-2.51-.34s-1.41-.56-1.96-1.01c-.54-.44-.96-.99-1.26-1.64-.3-.65-.45-1.4-.45-2.25,0-1.29.37-2.4,1.1-3.32.74-.92,1.78-1.67,3.12-2.25-.25-.19-.51-.4-.76-.65-.25-.25-.48-.53-.68-.85-.2-.32-.36-.67-.48-1.05-.12-.39-.18-.81-.18-1.26,0-.67.12-1.26.36-1.78.24-.52.57-.95,1-1.31.42-.36.92-.62,1.5-.81.58-.18,1.2-.27,1.87-.27s1.26.09,1.81.27c.55.18,1.02.44,1.41.78.39.34.7.74.92,1.22.22.47.33,1,.33,1.59,0,1.02-.29,1.86-.87,2.53-.58.67-1.45,1.25-2.61,1.72.58.23,1.11.51,1.59.84.47.33.91.7,1.31,1.1s.78.84,1.12,1.31c.35.47.69.95,1.03,1.45.69-.96,1.2-2.01,1.55-3.16.35-1.15.52-2.36.52-3.62,0-.32-.02-.62-.06-.91-.04-.28-.09-.56-.16-.84h2.02c.07.28.11.54.12.79.01.25.03.55.04.9,0,.77-.08,1.54-.24,2.32-.16.78-.38,1.53-.65,2.27-.27.73-.59,1.43-.95,2.09-.36.66-.74,1.27-1.14,1.82.3.41.57.76.81,1.06.25.3.49.55.74.76.25.2.51.35.77.45.27.1.57.15.91.15.25,0,.51-.03.77-.1.26-.07.53-.15.81-.25v1.93c-.3.12-.62.21-.96.27s-.66.09-.98.09h0M90.06,101.19c.64,0,1.24-.07,1.78-.21.54-.14,1.04-.33,1.5-.56.46-.23.87-.5,1.24-.81s.71-.63,1.02-.97c-.52-.8-.99-1.49-1.43-2.06s-.88-1.06-1.32-1.48c-.44-.41-.92-.77-1.42-1.07-.5-.3-1.09-.57-1.75-.83-.53.21-1.02.45-1.47.7-.45.26-.84.56-1.16.91-.33.35-.58.76-.77,1.23-.19.47-.28,1.01-.28,1.64,0,.58.11,1.08.32,1.52.21.44.5.81.87,1.1.37.29.8.51,1.29.66.49.15,1.02.22,1.59.22h0M93.23,88.23c0-.42-.08-.78-.23-1.08-.16-.3-.36-.54-.6-.74-.24-.19-.51-.34-.81-.43-.3-.09-.59-.13-.88-.13-.83,0-1.49.22-1.99.67-.5.45-.75,1.06-.76,1.83,0,.35.05.67.16.98s.25.59.44.85.41.5.67.7c.25.2.52.38.81.52,1.07-.37,1.86-.81,2.39-1.3.52-.5.79-1.12.79-1.87"/>
  <path class="st2" d="M126.74,102.71h-2.36l-1.93-5.1h-7.72l-1.82,5.1h-2.37l6.98-18.21h2.21l7.01,18.21h0M121.75,95.68l-2.86-7.76c-.09-.25-.19-.66-.28-1.22h-.05c-.08.52-.18.92-.29,1.22l-2.83,7.76h6.31"/>
  <path class="st2" d="M131.27,100.83h-.05v7.86h-2.08v-18.98h2.08v2.29h.05c1.02-1.73,2.52-2.59,4.49-2.59,1.68,0,2.98.58,3.92,1.75s1.41,2.72,1.41,4.68c0,2.18-.53,3.92-1.59,5.22-1.06,1.31-2.51,1.96-4.34,1.96-1.68,0-2.98-.73-3.9-2.18h0M131.22,95.58v1.82c0,1.07.35,1.99,1.05,2.74.7.75,1.58,1.12,2.66,1.12,1.26,0,2.25-.48,2.96-1.45.72-.96,1.07-2.31,1.07-4.02,0-1.45-.33-2.58-1-3.4s-1.57-1.23-2.72-1.23c-1.21,0-2.18.42-2.92,1.26-.74.84-1.1,1.9-1.1,3.17"/>
  <path class="st2" d="M146.53,100.83h-.05v7.86h-2.08v-18.98h2.08v2.29h.05c1.02-1.73,2.52-2.59,4.49-2.59,1.68,0,2.98.58,3.92,1.75.94,1.16,1.41,2.72,1.41,4.68,0,2.18-.53,3.92-1.59,5.22-1.06,1.31-2.51,1.96-4.34,1.96-1.68,0-2.98-.73-3.9-2.18h0M146.48,95.58v1.82c0,1.07.35,1.99,1.05,2.74.7.75,1.58,1.12,2.66,1.12,1.26,0,2.25-.48,2.96-1.45s1.07-2.31,1.07-4.02c0-1.45-.33-2.58-1-3.4-.67-.82-1.57-1.23-2.72-1.23-1.21,0-2.18.42-2.92,1.26-.74.84-1.1,1.9-1.1,3.17"/>
  <polyline class="st2" points="169.17 102.71 167.04 102.71 167.04 84.5 169.17 84.5 169.17 102.71"/>
  <path class="st2" d="M184.47,102.71h-2.08v-7.41c0-2.76-1.01-4.14-3.02-4.14-1.04,0-1.9.39-2.58,1.17s-1.02,1.77-1.02,2.96v7.41h-2.08v-13h2.08v2.16h.05c.98-1.64,2.4-2.46,4.27-2.46,1.42,0,2.51.46,3.26,1.38s1.13,2.24,1.13,3.98v7.95"/>
  <path class="st2" d="M199.16,102.71h-2.08v-7.41c0-2.76-1.01-4.14-3.02-4.14-1.04,0-1.9.39-2.58,1.17s-1.02,1.77-1.02,2.96v7.41h-2.08v-13h2.08v2.16h.05c.98-1.64,2.4-2.46,4.27-2.46,1.42,0,2.51.46,3.26,1.38s1.13,2.24,1.13,3.98v7.95"/>
  <path class="st2" d="M208.49,103.01c-1.92,0-3.46-.61-4.6-1.82-1.15-1.21-1.72-2.82-1.72-4.83,0-2.18.6-3.89,1.79-5.12s2.81-1.84,4.84-1.84,3.45.6,4.54,1.79c1.09,1.19,1.63,2.85,1.63,4.96s-.59,3.73-1.76,4.98c-1.17,1.25-2.74,1.87-4.72,1.87h0M208.64,91.15c-1.34,0-2.4.45-3.17,1.36-.78.91-1.17,2.16-1.17,3.76s.39,2.75,1.18,3.64c.79.89,1.84,1.33,3.16,1.33s2.38-.44,3.1-1.31,1.09-2.11,1.09-3.72-.36-2.88-1.09-3.76c-.72-.88-1.76-1.32-3.1-1.32"/>
  <path class="st2" d="M228.49,89.71l-5.18,13h-2.04l-4.93-13h2.29l3.3,9.45c.25.69.4,1.3.46,1.82h.05c.08-.65.22-1.24.41-1.76l3.45-9.5h2.2"/>
  <path class="st2" d="M240.03,102.71h-2.08v-2.03h-.05c-.91,1.56-2.24,2.34-4,2.34-1.29,0-2.31-.34-3.04-1.03-.73-.69-1.1-1.6-1.1-2.73,0-2.43,1.43-3.84,4.29-4.24l3.9-.55c0-2.21-.89-3.31-2.68-3.31-1.57,0-2.98.53-4.24,1.6v-2.13c1.28-.81,2.75-1.22,4.42-1.22,3.06,0,4.58,1.62,4.58,4.85v8.46h0M237.94,96.13l-3.14.43c-.96.14-1.69.37-2.18.72s-.74.95-.74,1.82c0,.63.23,1.15.68,1.56.45.4,1.06.6,1.81.6,1.03,0,1.89-.36,2.56-1.09s1.01-1.64,1.01-2.75v-1.29"/>
  <path class="st2" d="M249.96,102.58c-.49.27-1.14.41-1.94.41-2.28,0-3.42-1.27-3.42-3.81v-7.69h-2.23v-1.78h2.23v-3.17l2.08-.67v3.85h3.28v1.78h-3.28v7.33c0,.87.15,1.49.44,1.87.3.37.79.56,1.47.56.52,0,.98-.14,1.36-.43v1.78"/>
  <path class="st2" d="M253.78,86.4c-.37,0-.69-.13-.95-.38s-.39-.58-.39-.96.13-.71.39-.97c.26-.26.58-.39.95-.39s.7.13.97.39c.27.26.4.58.4.97s-.13.69-.4.95c-.27.26-.59.39-.97.39h0M254.8,102.71h-2.08v-13h2.08v13"/>
  <path class="st2" d="M264.44,103.01c-1.92,0-3.46-.61-4.6-1.82-1.15-1.21-1.72-2.82-1.72-4.83,0-2.18.6-3.89,1.79-5.12s2.81-1.84,4.84-1.84,3.45.6,4.54,1.79c1.09,1.19,1.63,2.85,1.63,4.96s-.59,3.73-1.76,4.98c-1.17,1.25-2.74,1.87-4.72,1.87h0M264.59,91.15c-1.34,0-2.4.45-3.17,1.36-.78.91-1.17,2.16-1.17,3.76s.39,2.75,1.18,3.64c.79.89,1.84,1.33,3.16,1.33s2.38-.44,3.1-1.31,1.09-2.11,1.09-3.72-.36-2.88-1.09-3.76c-.72-.88-1.76-1.32-3.1-1.32"/>
  <path class="st2" d="M285.01,102.71h-2.08v-7.41c0-2.76-1.01-4.14-3.02-4.14-1.04,0-1.9.39-2.58,1.17-.68.78-1.02,1.77-1.02,2.96v7.41h-2.08v-13h2.08v2.16h.05c.98-1.64,2.4-2.46,4.27-2.46,1.42,0,2.51.46,3.26,1.38.75.92,1.13,2.24,1.13,3.98v7.95"/>
  <path class="st2" d="M3.53,102.71v-18.21h5.03c6.42,0,9.62,2.96,9.62,8.87,0,2.81-.89,5.07-2.67,6.77-1.78,1.71-4.17,2.56-7.15,2.56H3.53M5.66,86.43v14.35h2.72c2.39,0,4.24-.64,5.57-1.92,1.33-1.28,1.99-3.09,1.99-5.43,0-4.66-2.48-7-7.44-7h-2.84"/>
  <path class="st2" d="M22.54,86.4c-.37,0-.69-.13-.95-.38-.26-.25-.39-.58-.39-.96s.13-.71.39-.97c.26-.26.58-.39.95-.39s.7.13.97.39c.27.26.4.58.4.97s-.13.69-.4.95c-.27.26-.59.39-.97.39h0M23.55,102.71h-2.08v-13h2.08v13"/>
  <path class="st2" d="M38.86,101.66c0,4.77-2.29,7.16-6.86,7.16-1.61,0-3.01-.3-4.21-.91v-2.08c1.46.81,2.86,1.22,4.19,1.22,3.2,0,4.8-1.7,4.8-5.1v-1.42h-.05c-.99,1.66-2.48,2.49-4.47,2.49-1.62,0-2.92-.58-3.9-1.73-.99-1.16-1.48-2.71-1.48-4.65,0-2.21.53-3.97,1.59-5.27,1.06-1.3,2.52-1.96,4.36-1.96s3.05.7,3.9,2.11h.05v-1.8h2.08v11.96h0M36.78,96.83v-1.92c0-1.03-.35-1.92-1.05-2.65-.7-.74-1.57-1.1-2.61-1.1-1.29,0-2.29.47-3.02,1.4-.73.94-1.09,2.24-1.09,3.93,0,1.45.35,2.6,1.05,3.47.7.87,1.62,1.3,2.77,1.3s2.12-.41,2.85-1.24c.73-.83,1.1-1.89,1.1-3.19"/>
  <path class="st2" d="M44.12,86.4c-.37,0-.69-.13-.95-.38-.26-.25-.39-.58-.39-.96s.13-.71.39-.97c.26-.26.58-.39.95-.39s.7.13.97.39c.27.26.4.58.4.97s-.13.69-.4.95c-.27.26-.59.39-.97.39h0M45.13,102.71h-2.08v-13h2.08v13"/>
  <path class="st2" d="M55.37,102.58c-.49.27-1.14.41-1.94.41-2.28,0-3.42-1.27-3.42-3.81v-7.69h-2.23v-1.78h2.23v-3.17l2.08-.67v3.85h3.28v1.78h-3.28v7.33c0,.87.15,1.49.44,1.87.3.37.79.56,1.47.56.52,0,.98-.14,1.36-.43v1.78"/>
  <path class="st2" d="M67.44,102.71h-2.08v-2.03h-.05c-.91,1.56-2.24,2.34-4,2.34-1.29,0-2.31-.34-3.04-1.03-.73-.69-1.1-1.6-1.1-2.73,0-2.43,1.43-3.84,4.29-4.24l3.9-.55c0-2.21-.89-3.31-2.68-3.31-1.57,0-2.98.53-4.24,1.6v-2.13c1.28-.81,2.75-1.22,4.42-1.22,3.06,0,4.58,1.62,4.58,4.85v8.46h0M65.36,96.13l-3.14.43c-.96.14-1.69.37-2.18.72-.49.34-.74.95-.74,1.82,0,.63.23,1.15.68,1.56.45.4,1.06.6,1.81.6,1.03,0,1.89-.36,2.56-1.09.67-.72,1.01-1.64,1.01-2.75v-1.29"/>
  <polyline class="st2" points="73.42 102.71 71.34 102.71 71.34 83.46 73.42 83.46 73.42 102.71"/>
  <path class="st2" d="M100.97,103c-.48,0-.91-.07-1.28-.2-.37-.13-.71-.32-1.02-.56s-.62-.54-.91-.88c-.29-.35-.6-.74-.92-1.18-.34.36-.73.72-1.17,1.05-.44.34-.94.64-1.48.9-.54.26-1.13.47-1.78.63s-1.34.23-2.09.23c-.91,0-1.75-.11-2.51-.34s-1.41-.56-1.96-1.01c-.54-.44-.96-.99-1.26-1.64-.3-.65-.45-1.4-.45-2.25,0-1.29.37-2.4,1.1-3.32.74-.92,1.78-1.67,3.12-2.25-.25-.19-.51-.4-.76-.65-.25-.25-.48-.53-.68-.85-.2-.32-.36-.67-.48-1.05-.12-.39-.18-.81-.18-1.26,0-.67.12-1.26.36-1.78.24-.52.57-.95,1-1.31.42-.36.92-.62,1.5-.81.58-.18,1.2-.27,1.87-.27s1.26.09,1.81.27c.55.18,1.02.44,1.41.78.39.34.7.74.92,1.22.22.47.33,1,.33,1.59,0,1.02-.29,1.86-.87,2.53-.58.67-1.45,1.25-2.61,1.72.58.23,1.11.51,1.59.84.47.33.91.7,1.31,1.1s.78.84,1.12,1.31c.35.47.69.95,1.03,1.45.69-.96,1.2-2.01,1.55-3.16.35-1.15.52-2.36.52-3.62,0-.32-.02-.62-.06-.91-.04-.28-.09-.56-.16-.84h2.02c.07.28.11.54.12.79.01.25.03.55.04.9,0,.77-.08,1.54-.24,2.32-.16.78-.38,1.53-.65,2.27-.27.73-.59,1.43-.95,2.09-.36.66-.74,1.27-1.14,1.82.3.41.57.76.81,1.06.25.3.49.55.74.76.25.2.51.35.77.45.27.1.57.15.91.15.25,0,.51-.03.77-.1.26-.07.53-.15.81-.25v1.93c-.3.12-.62.21-.96.27s-.66.09-.98.09h0M90.32,101.19c.64,0,1.24-.07,1.78-.21.54-.14,1.04-.33,1.5-.56.46-.23.87-.5,1.24-.81s.71-.63,1.02-.97c-.52-.8-.99-1.49-1.43-2.06s-.88-1.06-1.32-1.48c-.44-.41-.92-.77-1.42-1.07-.5-.3-1.09-.57-1.75-.83-.53.21-1.02.45-1.47.7-.45.26-.84.56-1.16.91-.33.35-.58.76-.77,1.23-.19.47-.28,1.01-.28,1.64,0,.58.11,1.08.32,1.52.21.44.5.81.87,1.1.37.29.8.51,1.29.66.49.15,1.02.22,1.59.22h0M93.49,88.23c0-.42-.08-.78-.23-1.08-.16-.3-.36-.54-.6-.74-.24-.19-.51-.34-.81-.43-.3-.09-.59-.13-.88-.13-.83,0-1.49.22-1.99.67-.5.45-.75,1.06-.76,1.83,0,.35.05.67.16.98s.25.59.44.85.41.5.67.7c.25.2.52.38.81.52,1.07-.37,1.86-.81,2.39-1.3s.79-1.12.79-1.87"/>
  <path class="st2" d="M127,102.71h-2.36l-1.93-5.1h-7.72l-1.82,5.1h-2.37l6.98-18.21h2.21l7.01,18.21h0M122.01,95.68l-2.86-7.76c-.09-.25-.19-.66-.28-1.22h-.05c-.08.52-.18.92-.29,1.22l-2.83,7.76h6.31"/>
  <path class="st2" d="M131.53,100.83h-.05v7.86h-2.08v-18.98h2.08v2.29h.05c1.02-1.73,2.52-2.59,4.49-2.59,1.68,0,2.98.58,3.92,1.75.94,1.16,1.41,2.72,1.41,4.68,0,2.18-.53,3.92-1.59,5.22-1.06,1.31-2.51,1.96-4.34,1.96-1.68,0-2.98-.73-3.9-2.18h0M131.48,95.58v1.82c0,1.07.35,1.99,1.05,2.74.7.75,1.58,1.12,2.66,1.12,1.26,0,2.25-.48,2.96-1.45.72-.96,1.07-2.31,1.07-4.02,0-1.45-.33-2.58-1-3.4s-1.57-1.23-2.72-1.23c-1.21,0-2.18.42-2.92,1.26-.74.84-1.1,1.9-1.1,3.17"/>
  <path class="st2" d="M146.79,100.83h-.05v7.86h-2.08v-18.98h2.08v2.29h.05c1.02-1.73,2.52-2.59,4.49-2.59,1.68,0,2.98.58,3.92,1.75s1.41,2.72,1.41,4.68c0,2.18-.53,3.92-1.59,5.22-1.06,1.31-2.51,1.96-4.34,1.96-1.68,0-2.98-.73-3.9-2.18h0M146.74,95.58v1.82c0,1.07.35,1.99,1.05,2.74.7.75,1.58,1.12,2.66,1.12,1.26,0,2.25-.48,2.96-1.45s1.07-2.31,1.07-4.02c0-1.45-.33-2.58-1-3.4-.67-.82-1.57-1.23-2.72-1.23-1.21,0-2.18.42-2.92,1.26-.74.84-1.1,1.9-1.1,3.17"/>
  <polyline class="st2" points="169.43 102.71 167.3 102.71 167.3 84.5 169.43 84.5 169.43 102.71"/>
  <path class="st2" d="M184.73,102.71h-2.08v-7.41c0-2.76-1.01-4.14-3.02-4.14-1.04,0-1.9.39-2.58,1.17s-1.02,1.77-1.02,2.96v7.41h-2.08v-13h2.08v2.16h.05c.98-1.64,2.4-2.46,4.27-2.46,1.42,0,2.51.46,3.26,1.38.75.92,1.13,2.24,1.13,3.98v7.95"/>
  <path class="st2" d="M199.42,102.71h-2.08v-7.41c0-2.76-1.01-4.14-3.02-4.14-1.04,0-1.9.39-2.58,1.17s-1.02,1.77-1.02,2.96v7.41h-2.08v-13h2.08v2.16h.05c.98-1.64,2.4-2.46,4.27-2.46,1.42,0,2.51.46,3.26,1.38.75.92,1.13,2.24,1.13,3.98v7.95"/>
  <path class="st2" d="M208.75,103.01c-1.92,0-3.46-.61-4.6-1.82-1.15-1.21-1.72-2.82-1.72-4.83,0-2.18.6-3.89,1.79-5.12s2.81-1.84,4.84-1.84,3.45.6,4.54,1.79c1.09,1.19,1.63,2.85,1.63,4.96s-.59,3.73-1.76,4.98c-1.17,1.25-2.74,1.87-4.72,1.87h0M208.9,91.15c-1.34,0-2.4.45-3.17,1.36-.78.91-1.17,2.16-1.17,3.76s.39,2.75,1.18,3.64c.79.89,1.84,1.33,3.16,1.33s2.38-.44,3.1-1.31,1.09-2.11,1.09-3.72-.36-2.88-1.09-3.76c-.72-.88-1.76-1.32-3.1-1.32"/>
  <path class="st2" d="M228.75,89.71l-5.18,13h-2.04l-4.93-13h2.29l3.3,9.45c.25.69.4,1.3.46,1.82h.05c.08-.65.22-1.24.41-1.76l3.45-9.5h2.2"/>
  <path class="st2" d="M240.29,102.71h-2.08v-2.03h-.05c-.91,1.56-2.24,2.34-4,2.34-1.29,0-2.31-.34-3.04-1.03-.73-.69-1.1-1.6-1.1-2.73,0-2.43,1.43-3.84,4.29-4.24l3.9-.55c0-2.21-.89-3.31-2.68-3.31-1.57,0-2.98.53-4.24,1.6v-2.13c1.28-.81,2.75-1.22,4.42-1.22,3.06,0,4.58,1.62,4.58,4.85v8.46h0M238.2,96.13l-3.14.43c-.96.14-1.69.37-2.18.72s-.74.95-.74,1.82c0,.63.23,1.15.68,1.56.45.4,1.06.6,1.81.6,1.03,0,1.89-.36,2.56-1.09s1.01-1.64,1.01-2.75v-1.29"/>
  <path class="st2" d="M250.22,102.58c-.49.27-1.14.41-1.94.41-2.28,0-3.42-1.27-3.42-3.81v-7.69h-2.23v-1.78h2.23v-3.17l2.08-.67v3.85h3.28v1.78h-3.28v7.33c0,.87.15,1.49.44,1.87.3.37.79.56,1.47.56.52,0,.98-.14,1.36-.43v1.78"/>
  <path class="st2" d="M254.04,86.4c-.37,0-.69-.13-.95-.38s-.39-.58-.39-.96.13-.71.39-.97c.26-.26.58-.39.95-.39s.7.13.97.39c.27.26.4.58.4.97s-.13.69-.4.95c-.27.26-.59.39-.97.39h0M255.06,102.71h-2.08v-13h2.08v13"/>
  <path class="st2" d="M264.7,103.01c-1.92,0-3.46-.61-4.6-1.82-1.15-1.21-1.72-2.82-1.72-4.83,0-2.18.6-3.89,1.79-5.12s2.81-1.84,4.84-1.84,3.45.6,4.54,1.79c1.09,1.19,1.63,2.85,1.63,4.96s-.59,3.73-1.76,4.98c-1.17,1.25-2.74,1.87-4.72,1.87h0M264.85,91.15c-1.34,0-2.4.45-3.17,1.36-.78.91-1.17,2.16-1.17,3.76s.39,2.75,1.18,3.64c.79.89,1.84,1.33,3.16,1.33s2.38-.44,3.1-1.31,1.09-2.11,1.09-3.72-.36-2.88-1.09-3.76c-.72-.88-1.76-1.32-3.1-1.32"/>
  <path class="st2" d="M285.27,102.71h-2.08v-7.41c0-2.76-1.01-4.14-3.02-4.14-1.04,0-1.9.39-2.58,1.17-.68.78-1.02,1.77-1.02,2.96v7.41h-2.08v-13h2.08v2.16h.05c.98-1.64,2.4-2.46,4.27-2.46,1.42,0,2.51.46,3.26,1.38.75.92,1.13,2.24,1.13,3.98v7.95"/>
  <path class="st2" d="M3.79,102.71v-18.21h5.03c6.42,0,9.62,2.96,9.62,8.87,0,2.81-.89,5.07-2.67,6.77-1.78,1.71-4.17,2.56-7.15,2.56H3.79M5.92,86.43v14.35h2.72c2.39,0,4.24-.64,5.57-1.92,1.33-1.28,1.99-3.09,1.99-5.43,0-4.66-2.48-7-7.44-7h-2.84"/>
  <path class="st2" d="M22.8,86.4c-.37,0-.69-.13-.95-.38-.26-.25-.39-.58-.39-.96s.13-.71.39-.97c.26-.26.58-.39.95-.39s.7.13.97.39c.27.26.4.58.4.97s-.13.69-.4.95c-.27.26-.59.39-.97.39h0M23.81,102.71h-2.08v-13h2.08v13"/>
  <path class="st2" d="M39.12,101.66c0,4.77-2.29,7.16-6.86,7.16-1.61,0-3.01-.3-4.21-.91v-2.08c1.46.81,2.86,1.22,4.19,1.22,3.2,0,4.8-1.7,4.8-5.1v-1.42h-.05c-.99,1.66-2.48,2.49-4.47,2.49-1.62,0-2.92-.58-3.9-1.73-.99-1.16-1.48-2.71-1.48-4.65,0-2.21.53-3.97,1.59-5.27,1.06-1.3,2.52-1.96,4.36-1.96s3.05.7,3.9,2.11h.05v-1.8h2.08v11.96h0M37.04,96.83v-1.92c0-1.03-.35-1.92-1.05-2.65-.7-.74-1.57-1.1-2.61-1.1-1.29,0-2.29.47-3.02,1.4-.73.94-1.09,2.24-1.09,3.93,0,1.45.35,2.6,1.05,3.47.7.87,1.62,1.3,2.77,1.3s2.12-.41,2.85-1.24c.73-.83,1.1-1.89,1.1-3.19"/>
  <path class="st2" d="M44.38,86.4c-.37,0-.69-.13-.95-.38s-.39-.58-.39-.96.13-.71.39-.97c.26-.26.58-.39.95-.39s.7.13.97.39c.27.26.4.58.4.97s-.13.69-.4.95c-.27.26-.59.39-.97.39h0M45.39,102.71h-2.08v-13h2.08v13"/>
  <path class="st2" d="M55.63,102.58c-.49.27-1.14.41-1.94.41-2.28,0-3.42-1.27-3.42-3.81v-7.69h-2.23v-1.78h2.23v-3.17l2.08-.67v3.85h3.28v1.78h-3.28v7.33c0,.87.15,1.49.44,1.87.3.37.79.56,1.47.56.52,0,.98-.14,1.36-.43v1.78"/>
  <path class="st2" d="M67.7,102.71h-2.08v-2.03h-.05c-.91,1.56-2.24,2.34-4,2.34-1.29,0-2.31-.34-3.04-1.03-.73-.69-1.1-1.6-1.1-2.73,0-2.43,1.43-3.84,4.29-4.24l3.9-.55c0-2.21-.89-3.31-2.68-3.31-1.57,0-2.98.53-4.24,1.6v-2.13c1.28-.81,2.75-1.22,4.42-1.22,3.06,0,4.58,1.62,4.58,4.85v8.46h0M65.62,96.13l-3.14.43c-.96.14-1.69.37-2.18.72-.49.34-.74.95-.74,1.82,0,.63.23,1.15.68,1.56.45.4,1.06.6,1.81.6,1.03,0,1.89-.36,2.56-1.09.67-.72,1.01-1.64,1.01-2.75v-1.29"/>
  <polyline class="st2" points="73.68 102.71 71.6 102.71 71.6 83.46 73.68 83.46 73.68 102.71"/>
  <path class="st2" d="M101.23,103c-.48,0-.91-.07-1.28-.2-.37-.13-.71-.32-1.02-.56s-.62-.54-.91-.88c-.29-.35-.6-.74-.92-1.18-.34.36-.73.72-1.17,1.05-.44.34-.94.64-1.48.9-.54.26-1.13.47-1.78.63s-1.34.23-2.09.23c-.91,0-1.75-.11-2.51-.34s-1.41-.56-1.96-1.01c-.54-.44-.96-.99-1.26-1.64-.3-.65-.45-1.4-.45-2.25,0-1.29.37-2.4,1.1-3.32.74-.92,1.78-1.67,3.12-2.25-.25-.19-.51-.4-.76-.65-.25-.25-.48-.53-.68-.85-.2-.32-.36-.67-.48-1.05-.12-.39-.18-.81-.18-1.26,0-.67.12-1.26.36-1.78.24-.52.57-.95,1-1.31.42-.36.92-.62,1.5-.81.58-.18,1.2-.27,1.87-.27s1.26.09,1.81.27c.55.18,1.02.44,1.41.78.39.34.7.74.92,1.22.22.47.33,1,.33,1.59,0,1.02-.29,1.86-.87,2.53-.58.67-1.45,1.25-2.61,1.72.58.23,1.11.51,1.59.84.47.33.91.7,1.31,1.1s.78.84,1.12,1.31c.35.47.69.95,1.03,1.45.69-.96,1.2-2.01,1.55-3.16.35-1.15.52-2.36.52-3.62,0-.32-.02-.62-.06-.91-.04-.28-.09-.56-.16-.84h2.02c.07.28.11.54.12.79.01.25.03.55.04.9,0,.77-.08,1.54-.24,2.32-.16.78-.38,1.53-.65,2.27-.27.73-.59,1.43-.95,2.09-.36.66-.74,1.27-1.14,1.82.3.41.57.76.81,1.06.25.3.49.55.74.76.25.2.51.35.77.45.27.1.57.15.91.15.25,0,.51-.03.77-.1.26-.07.53-.15.81-.25v1.93c-.3.12-.62.21-.96.27s-.66.09-.98.09h0M90.58,101.19c.64,0,1.24-.07,1.78-.21.54-.14,1.04-.33,1.5-.56.46-.23.87-.5,1.24-.81s.71-.63,1.02-.97c-.52-.8-.99-1.49-1.43-2.06s-.88-1.06-1.32-1.48c-.44-.41-.92-.77-1.42-1.07-.5-.3-1.09-.57-1.75-.83-.53.21-1.02.45-1.47.7-.45.26-.84.56-1.16.91-.33.35-.58.76-.77,1.23-.19.47-.28,1.01-.28,1.64,0,.58.11,1.08.32,1.52.21.44.5.81.87,1.1.37.29.8.51,1.29.66.49.15,1.02.22,1.59.22h0M93.75,88.23c0-.42-.08-.78-.23-1.08-.16-.3-.36-.54-.6-.74-.24-.19-.51-.34-.81-.43-.3-.09-.59-.13-.88-.13-.83,0-1.49.22-1.99.67-.5.45-.75,1.06-.76,1.83,0,.35.05.67.16.98s.25.59.44.85.41.5.67.7c.25.2.52.38.81.52,1.07-.37,1.86-.81,2.39-1.3s.79-1.12.79-1.87"/>
  <path class="st2" d="M127.26,102.71h-2.36l-1.93-5.1h-7.72l-1.82,5.1h-2.37l6.98-18.21h2.21l7.01,18.21h0M122.27,95.68l-2.86-7.76c-.09-.25-.19-.66-.28-1.22h-.05c-.08.52-.18.92-.29,1.22l-2.83,7.76h6.31"/>
  <path class="st2" d="M131.79,100.83h-.05v7.86h-2.08v-18.98h2.08v2.29h.05c1.02-1.73,2.52-2.59,4.49-2.59,1.68,0,2.98.58,3.92,1.75.94,1.16,1.41,2.72,1.41,4.68,0,2.18-.53,3.92-1.59,5.22-1.06,1.31-2.51,1.96-4.34,1.96-1.68,0-2.98-.73-3.9-2.18h0M131.74,95.58v1.82c0,1.07.35,1.99,1.05,2.74.7.75,1.58,1.12,2.66,1.12,1.26,0,2.25-.48,2.96-1.45.72-.96,1.07-2.31,1.07-4.02,0-1.45-.33-2.58-1-3.4s-1.57-1.23-2.72-1.23c-1.21,0-2.18.42-2.92,1.26-.74.84-1.1,1.9-1.1,3.17"/>
  <path class="st2" d="M147.05,100.83h-.05v7.86h-2.08v-18.98h2.08v2.29h.05c1.02-1.73,2.52-2.59,4.49-2.59,1.68,0,2.98.58,3.92,1.75s1.41,2.72,1.41,4.68c0,2.18-.53,3.92-1.59,5.22-1.06,1.31-2.51,1.96-4.34,1.96-1.68,0-2.98-.73-3.9-2.18h0M147,95.58v1.82c0,1.07.35,1.99,1.05,2.74.7.75,1.58,1.12,2.66,1.12,1.26,0,2.25-.48,2.96-1.45s1.07-2.31,1.07-4.02c0-1.45-.33-2.58-1-3.4-.67-.82-1.57-1.23-2.72-1.23-1.21,0-2.18.42-2.92,1.26-.74.84-1.1,1.9-1.1,3.17"/>
  <polyline class="st2" points="169.69 102.71 167.56 102.71 167.56 84.5 169.69 84.5 169.69 102.71"/>
  <path class="st2" d="M184.99,102.71h-2.08v-7.41c0-2.76-1.01-4.14-3.02-4.14-1.04,0-1.9.39-2.58,1.17s-1.02,1.77-1.02,2.96v7.41h-2.08v-13h2.08v2.16h.05c.98-1.64,2.4-2.46,4.27-2.46,1.42,0,2.51.46,3.26,1.38.75.92,1.13,2.24,1.13,3.98v7.95"/>
  <path class="st2" d="M199.68,102.71h-2.08v-7.41c0-2.76-1.01-4.14-3.02-4.14-1.04,0-1.9.39-2.58,1.17s-1.02,1.77-1.02,2.96v7.41h-2.08v-13h2.08v2.16h.05c.98-1.64,2.4-2.46,4.27-2.46,1.42,0,2.51.46,3.26,1.38.75.92,1.13,2.24,1.13,3.98v7.95"/>
  <path class="st2" d="M209.01,103.01c-1.92,0-3.46-.61-4.6-1.82-1.15-1.21-1.72-2.82-1.72-4.83,0-2.18.6-3.89,1.79-5.12s2.81-1.84,4.84-1.84,3.45.6,4.54,1.79c1.09,1.19,1.63,2.85,1.63,4.96s-.59,3.73-1.76,4.98c-1.17,1.25-2.74,1.87-4.72,1.87h0M209.16,91.15c-1.34,0-2.4.45-3.17,1.36-.78.91-1.17,2.16-1.17,3.76s.39,2.75,1.18,3.64c.79.89,1.84,1.33,3.16,1.33s2.38-.44,3.1-1.31,1.09-2.11,1.09-3.72-.36-2.88-1.09-3.76c-.72-.88-1.76-1.32-3.1-1.32"/>
  <path class="st2" d="M229.01,89.71l-5.18,13h-2.04l-4.93-13h2.29l3.3,9.45c.25.69.4,1.3.46,1.82h.05c.08-.65.22-1.24.41-1.76l3.45-9.5h2.2"/>
  <path class="st2" d="M240.55,102.71h-2.08v-2.03h-.05c-.91,1.56-2.24,2.34-4,2.34-1.29,0-2.31-.34-3.04-1.03-.73-.69-1.1-1.6-1.1-2.73,0-2.43,1.43-3.84,4.29-4.24l3.9-.55c0-2.21-.89-3.31-2.68-3.31-1.57,0-2.98.53-4.24,1.6v-2.13c1.28-.81,2.75-1.22,4.42-1.22,3.06,0,4.58,1.62,4.58,4.85v8.46h0M238.46,96.13l-3.14.43c-.96.14-1.69.37-2.18.72s-.74.95-.74,1.82c0,.63.23,1.15.68,1.56.45.4,1.06.6,1.81.6,1.03,0,1.89-.36,2.56-1.09s1.01-1.64,1.01-2.75v-1.29"/>
  <path class="st2" d="M250.48,102.58c-.49.27-1.14.41-1.94.41-2.28,0-3.42-1.27-3.42-3.81v-7.69h-2.23v-1.78h2.23v-3.17l2.08-.67v3.85h3.28v1.78h-3.28v7.33c0,.87.15,1.49.44,1.87.3.37.79.56,1.47.56.52,0,.98-.14,1.36-.43v1.78"/>
  <path class="st2" d="M254.3,86.4c-.37,0-.69-.13-.95-.38s-.39-.58-.39-.96.13-.71.39-.97c.26-.26.58-.39.95-.39s.7.13.97.39c.27.26.4.58.4.97s-.13.69-.4.95c-.27.26-.59.39-.97.39h0M255.32,102.71h-2.08v-13h2.08v13"/>
  <path class="st2" d="M264.96,103.01c-1.92,0-3.46-.61-4.6-1.82-1.15-1.21-1.72-2.82-1.72-4.83,0-2.18.6-3.89,1.79-5.12s2.81-1.84,4.84-1.84,3.45.6,4.54,1.79c1.09,1.19,1.63,2.85,1.63,4.96s-.59,3.73-1.76,4.98c-1.17,1.25-2.74,1.87-4.72,1.87h0M265.11,91.15c-1.34,0-2.4.45-3.17,1.36-.78.91-1.17,2.16-1.17,3.76s.39,2.75,1.18,3.64c.79.89,1.84,1.33,3.16,1.33s2.38-.44,3.1-1.31,1.09-2.11,1.09-3.72-.36-2.88-1.09-3.76c-.72-.88-1.76-1.32-3.1-1.32"/>
  <path class="st2" d="M285.53,102.71h-2.08v-7.41c0-2.76-1.01-4.14-3.02-4.14-1.04,0-1.9.39-2.58,1.17-.68.78-1.02,1.77-1.02,2.96v7.41h-2.08v-13h2.08v2.16h.05c.98-1.64,2.4-2.46,4.27-2.46,1.42,0,2.51.46,3.26,1.38.75.92,1.13,2.24,1.13,3.98v7.95"/>
  <path class="st2" d="M17.36,138.71h-2.36l-1.93-5.1h-7.72l-1.82,5.1H1.16l6.98-18.21h2.21l7.01,18.21h0M12.37,131.68l-2.86-7.76c-.09-.25-.19-.66-.28-1.22h-.05c-.08.52-.18.92-.29,1.22l-2.83,7.76h6.31"/>
  <polyline class="st2" points="28.82 126.3 21.13 136.93 28.74 136.93 28.74 138.71 18.07 138.71 18.07 138.06 25.76 127.48 18.79 127.48 18.79 125.71 28.82 125.71 28.82 126.3"/>
  <path class="st2" d="M42.02,138.71h-2.08v-2.06h-.05c-.86,1.57-2.2,2.36-4.01,2.36-3.1,0-4.65-1.85-4.65-5.54v-7.77h2.07v7.44c0,2.74,1.05,4.11,3.15,4.11,1.02,0,1.85-.37,2.51-1.12s.98-1.73.98-2.94v-7.49h2.08v13"/>
  <path class="st2" d="M52.98,127.81c-.36-.28-.89-.42-1.57-.42-.89,0-1.63.42-2.23,1.26s-.9,1.98-.9,3.43v6.63h-2.08v-13h2.08v2.68h.05c.3-.91.75-1.63,1.36-2.14s1.29-.77,2.04-.77c.54,0,.96.06,1.24.18v2.16"/>
  <path class="st2" d="M65.67,132.73h-9.18c.03,1.45.42,2.56,1.17,3.35s1.77,1.18,3.07,1.18c1.46,0,2.81-.48,4.04-1.45v1.96c-1.14.83-2.65,1.24-4.53,1.24s-3.28-.59-4.33-1.77-1.57-2.84-1.57-4.98c0-2.02.57-3.67,1.72-4.94,1.15-1.27,2.57-1.91,4.27-1.91s3.02.55,3.95,1.65c.93,1.1,1.4,2.63,1.4,4.58v1.09h0M63.54,130.96c0-1.2-.3-2.14-.87-2.81-.57-.67-1.36-1-2.38-1s-1.82.35-2.5,1.05c-.69.7-1.11,1.62-1.27,2.75h7.02"/>
  <path class="st2" d="M17.62,138.71h-2.36l-1.93-5.1h-7.72l-1.82,5.1H1.42l6.98-18.21h2.21l7.01,18.21h0M12.63,131.68l-2.86-7.76c-.09-.25-.19-.66-.28-1.22h-.05c-.08.52-.18.92-.29,1.22l-2.83,7.76h6.31"/>
  <polyline class="st2" points="29.08 126.3 21.39 136.93 29 136.93 29 138.71 18.33 138.71 18.33 138.06 26.02 127.48 19.05 127.48 19.05 125.71 29.08 125.71 29.08 126.3"/>
  <path class="st2" d="M42.28,138.71h-2.08v-2.06h-.05c-.86,1.57-2.2,2.36-4.01,2.36-3.1,0-4.65-1.85-4.65-5.54v-7.77h2.07v7.44c0,2.74,1.05,4.11,3.15,4.11,1.02,0,1.85-.37,2.51-1.12s.98-1.73.98-2.94v-7.49h2.08v13"/>
  <path class="st2" d="M53.24,127.81c-.36-.28-.89-.42-1.57-.42-.89,0-1.63.42-2.23,1.26s-.9,1.98-.9,3.43v6.63h-2.08v-13h2.08v2.68h.05c.3-.91.75-1.63,1.36-2.14s1.29-.77,2.04-.77c.54,0,.96.06,1.24.18v2.16"/>
  <path class="st2" d="M65.93,132.73h-9.18c.03,1.45.42,2.56,1.17,3.35s1.77,1.18,3.07,1.18c1.46,0,2.81-.48,4.04-1.45v1.96c-1.14.83-2.65,1.24-4.53,1.24s-3.28-.59-4.33-1.77c-1.05-1.18-1.57-2.84-1.57-4.98,0-2.02.57-3.67,1.72-4.94,1.15-1.27,2.57-1.91,4.27-1.91s3.02.55,3.95,1.65c.93,1.1,1.4,2.63,1.4,4.58v1.09h0M63.8,130.96c0-1.2-.3-2.14-.87-2.81-.57-.67-1.36-1-2.38-1s-1.82.35-2.5,1.05-1.11,1.62-1.27,2.75h7.02"/>
  <path class="st2" d="M17.88,138.71h-2.36l-1.93-5.1h-7.72l-1.82,5.1H1.68l6.98-18.21h2.21l7.01,18.21h0M12.89,131.68l-2.86-7.76c-.09-.25-.19-.66-.28-1.22h-.05c-.08.52-.18.92-.29,1.22l-2.83,7.76h6.31"/>
  <polyline class="st2" points="29.34 126.3 21.65 136.93 29.26 136.93 29.26 138.71 18.59 138.71 18.59 138.06 26.28 127.48 19.31 127.48 19.31 125.71 29.34 125.71 29.34 126.3"/>
  <path class="st2" d="M42.54,138.71h-2.08v-2.06h-.05c-.86,1.57-2.2,2.36-4.01,2.36-3.1,0-4.65-1.85-4.65-5.54v-7.77h2.07v7.44c0,2.74,1.05,4.11,3.15,4.11,1.02,0,1.85-.37,2.51-1.12s.98-1.73.98-2.94v-7.49h2.08v13"/>
  <path class="st2" d="M53.5,127.81c-.36-.28-.89-.42-1.57-.42-.89,0-1.63.42-2.23,1.26s-.9,1.98-.9,3.43v6.63h-2.08v-13h2.08v2.68h.05c.3-.91.75-1.63,1.36-2.14s1.29-.77,2.04-.77c.54,0,.96.06,1.24.18v2.16"/>
  <path class="st2" d="M66.19,132.73h-9.18c.03,1.45.42,2.56,1.17,3.35.74.79,1.77,1.18,3.07,1.18,1.46,0,2.81-.48,4.04-1.45v1.96c-1.14.83-2.65,1.24-4.53,1.24s-3.28-.59-4.33-1.77-1.57-2.84-1.57-4.98c0-2.02.57-3.67,1.72-4.94,1.15-1.27,2.57-1.91,4.27-1.91s3.02.55,3.95,1.65c.93,1.1,1.4,2.63,1.4,4.58v1.09h0M64.06,130.96c0-1.2-.3-2.14-.87-2.81-.57-.67-1.36-1-2.38-1s-1.82.35-2.5,1.05-1.11,1.62-1.27,2.75h7.02"/>
</svg>