<?xml version="1.0" encoding="UTF-8"?>
<svg xmlns="http://www.w3.org/2000/svg" version="1.1" viewBox="0 0 22 22">
  <path d="M7.7,22c-.39,0-.79-.08-1.16-.23-.75-.31-1.33-.89-1.64-1.64l-.72-1.75c-.1-.25-.31-.46-.56-.56l-1.75-.72c-.75-.31-1.33-.89-1.64-1.64-.31-.75-.31-1.57,0-2.32l.72-1.74c.1-.25.1-.54,0-.79l-.72-1.75c-.15-.37-.23-.76-.23-1.16s.08-.79.23-1.16c.15-.37.37-.7.66-.98.28-.28.61-.5.98-.66l1.74-.72c.25-.1.46-.31.56-.56l.72-1.74c.31-.74.9-1.34,1.64-1.64.75-.31,1.57-.31,2.32,0l1.74.72c.25.1.54.11.79,0l1.75-.72c.75-.31,1.57-.31,2.32,0,.75.31,1.33.89,1.64,1.64l.7,1.7s.01.03.02.04c.11.26.3.45.56.56l1.75.72c.75.31,1.33.89,1.64,1.64.31.74.31,1.58,0,2.32l-.72,1.74c-.11.26-.11.54,0,.79l.72,1.75c.15.37.23.76.23,1.16s-.08.79-.23,1.16c-.15.36-.37.7-.66.98-.29.29-.62.51-.99.66l-1.75.72c-.26.11-.45.3-.56.56l-.72,1.74c-.31.75-.89,1.33-1.64,1.64-.75.31-1.57.31-2.32,0l-1.74-.72c-.25-.1-.54-.1-.79,0l-1.75.72c-.37.16-.77.23-1.16.23ZM7.7,2c-.13,0-.27.03-.39.08-.25.1-.46.31-.56.56l-.72,1.75c-.31.75-.89,1.33-1.64,1.64l-1.74.72c-.13.05-.24.13-.33.22s-.17.21-.23.34c-.05.13-.08.26-.08.4s.03.27.08.4l.72,1.75c.31.75.31,1.57,0,2.32l-.72,1.75c-.1.25-.1.54,0,.79.1.25.31.45.56.56l1.75.72c.74.31,1.34.9,1.64,1.64l.72,1.74c.11.25.3.45.56.56.25.1.53.1.79,0l1.75-.72c.75-.31,1.57-.31,2.32,0l1.75.72c.26.11.54.11.79,0,.26-.11.45-.3.56-.56l.72-1.75c.31-.75.9-1.33,1.64-1.64l1.74-.72c.13-.05.24-.13.34-.23.09-.09.17-.21.22-.33.05-.13.08-.26.08-.4s-.03-.27-.08-.39l-.72-1.75c-.31-.73-.31-1.58,0-2.32l.72-1.74c.1-.25.1-.54,0-.79-.11-.25-.3-.45-.56-.56l-1.75-.72c-.73-.3-1.3-.86-1.62-1.59,0-.02-.02-.04-.02-.05l-.72-1.75c-.11-.25-.3-.45-.56-.56-.25-.11-.53-.11-.79,0l-1.75.72c-.74.31-1.57.31-2.32,0l-1.74-.72c-.13-.05-.26-.08-.4-.08ZM10,14c-.26,0-.51-.1-.71-.29l-2-2c-.39-.39-.39-1.02,0-1.41s1.02-.39,1.41,0l1.29,1.29,3.79-3.79c.39-.39,1.02-.39,1.41,0s.39,1.02,0,1.41l-4.5,4.5c-.2.2-.45.29-.71.29Z"/>
</svg>