<?xml version="1.0" encoding="UTF-8"?>
<svg xmlns="http://www.w3.org/2000/svg" version="1.1" viewBox="0 0 20 20">
  <path d="M17.4,20H2.6c-.65,0-1.08,0-1.51-.22-.38-.19-.68-.49-.87-.87-.22-.43-.22-.86-.22-1.51V6.6c0-.65,0-1.08.22-1.51.19-.38.5-.68.87-.87.43-.22.86-.22,1.51-.22h3.4v-1.4c0-.65,0-1.08.22-1.51.19-.38.5-.68.87-.87.43-.22.86-.22,1.51-.22h2.8c.65,0,1.08,0,1.51.22.38.19.68.5.87.87.22.43.22.86.22,1.51v5.4h3.4c.65,0,1.08,0,1.51.22.38.19.68.5.87.87.22.43.22.86.22,1.51v6.8c0,.65,0,1.08-.22,1.51-.19.38-.49.68-.87.87-.43.22-.86.22-1.51.22ZM2.6,6c-.28,0-.57,0-.65.02.05.01.05.3.05.58v10.8c0,.28,0,.57.02.65.01-.05.3-.05.58-.05h3.4V6h-3.4ZM14,18h3.4c.28,0,.57,0,.65-.02-.05-.01-.05-.3-.05-.58v-6.8c0-.28,0-.57-.02-.65-.01.05-.3.05-.58.05h-3.4v8ZM8,18h4V2.6c0-.28,0-.57-.02-.65-.01.05-.3.05-.58.05h-2.8c-.28,0-.57,0-.65.02.05.01.05.3.05.58v15.4Z"/>
</svg>