<?xml version="1.0" encoding="UTF-8"?>
<svg xmlns="http://www.w3.org/2000/svg" version="1.1" viewBox="0 0 22 20">
  <path d="M11,19.38c-.12,0-.24-.01-.36-.03-.28-.05-.49-.16-.8-.31l-5.4-2.7c-.39-.19-.63-.32-.86-.55-.21-.22-.37-.47-.46-.75-.11-.32-.11-.6-.11-1.02v-5.39l-2.45-1.22c-.34-.17-.55-.52-.55-.89s.21-.73.55-.89L10.19.78c.17-.09.32-.16.52-.2.19-.03.37-.03.55,0,.21.04.36.11.53.2l9.65,4.82c.34.17.55.52.55.89s-.21.73-.55.89l-2.45,1.22v5.39c0,.43,0,.71-.11,1.02-.09.28-.25.53-.46.74-.24.24-.49.37-.86.55l-5.41,2.7c-.31.16-.52.26-.79.31-.13.02-.25.03-.38.03ZM5,9.62v4.39c0,.19,0,.31,0,.4.04,0,.15.05.31.13l5.41,2.7c.14.07.22.12.3.14.02-.02.1-.07.24-.14l5.4-2.7c.17-.09.28-.13.36-.19-.02-.04-.03-.16-.03-.35v-4.39l-5.19,2.6c-.17.09-.33.16-.53.2-.18.03-.36.03-.54,0-.21-.04-.37-.12-.53-.2l-5.21-2.6ZM4.47,7.12l6.53,3.27,6.53-3.27s.03-.01.04-.02l1.19-.59-7.76-3.88-7.76,3.88,1.19.59s.03.01.04.02Z"/>
</svg>