<?xml version="1.0" encoding="UTF-8"?>
<svg xmlns="http://www.w3.org/2000/svg" version="1.1" viewBox="0 0 23 22">
  <path fill="#00b07d" d="M11.5,22c-.54,0-1.08-.04-1.6-.12-.03,0-.06,0-.09-.01C4.54,21.05.5,16.49.5,11c0-.41.02-.82.07-1.22,0-.02,0-.05,0-.07C1.22,4.25,5.87,0,11.5,0c1.02,0,2.03.14,3,.42.61-.27,1.29-.42,2-.42,2.76,0,5,2.24,5,5,0,.39-.05.77-.13,1.13.74,1.5,1.13,3.18,1.13,4.87,0,6.07-4.93,11-11,11ZM11,19.99c.17,0,.33.01.5.01,4.96,0,9-4.04,9-9,0-.83-.12-1.66-.34-2.46-.69.92-1.57,1.8-2.47,2.69l-.48.47c-.39.39-1.02.39-1.41,0l-.48-.47c-1.96-1.95-3.82-3.78-3.82-6.23,0-1.1.36-2.12.96-2.95-.32-.03-.64-.05-.96-.05-4.19,0-7.71,2.87-8.71,6.75l4.22-.38c.58-.05,1.15.24,1.44.75l1.79,3.14,2.74,1.57c.39.22.66.6.73,1.04.08.44-.05.89-.34,1.23l-2.37,2.76v1.12ZM2.5,10.78c0,.07,0,.15,0,.22,0,4.1,2.75,7.56,6.5,8.65v-.96c0-.36.13-.7.36-.97l2.09-2.44-2.33-1.33c-.23-.13-.42-.32-.56-.55l-1.7-2.99-4.36.39ZM10.11,12.2h0s0,0,0,0ZM16.5,2c-1.65,0-3,1.35-3,3,0,1.54,1.37,2.97,3,4.59,1.63-1.62,3-3.05,3-4.59,0-1.65-1.35-3-3-3ZM16.5,6c-.69,0-1.25-.56-1.25-1.25s.56-1.25,1.25-1.25,1.25.56,1.25,1.25-.56,1.25-1.25,1.25Z"/>
</svg>