<?xml version="1.0" encoding="UTF-8"?>
<svg xmlns="http://www.w3.org/2000/svg" version="1.1" viewBox="0 0 20 21">
  <path fill="#00b07d" d="M5.5,20.46c-.46,0-.89-.21-1.17-.57-.33-.41-.33-.87-.33-1.56v-1.34c-.42-.01-.73-.04-1.04-.13-1.38-.37-2.46-1.45-2.83-2.83-.14-.51-.14-1.02-.14-2.04v-6.2c0-1.84,0-2.76.44-3.62.39-.76.99-1.36,1.75-1.75.86-.44,1.78-.44,3.62-.44h8.4c1.84,0,2.76,0,3.62.44.76.39,1.36.99,1.75,1.75.44.85.44,1.78.44,3.62v5.4c0,1.84,0,2.76-.44,3.62-.39.76-.99,1.36-1.75,1.75-.86.44-1.78.44-3.62.44h-2.52c-.56,0-.83,0-1.03.04-.18.04-.35.1-.51.18-.18.09-.4.26-.82.61l-2.39,1.92c-.54.43-.9.72-1.42.72ZM6.01,18.89h.01-.01ZM5.8,2c-1.47,0-2.28,0-2.71.22-.38.19-.68.5-.87.87-.22.43-.22,1.24-.22,2.71v6.2c0,.81,0,1.26.07,1.52.18.69.73,1.23,1.41,1.41.25.07.7.07,1.52.07.55,0,1,.45,1,1v1.92l2.06-1.65c.53-.42.81-.65,1.17-.83.32-.16.66-.28,1.02-.36.4-.08.76-.08,1.43-.08h2.52c1.47,0,2.28,0,2.71-.22.38-.19.68-.49.87-.87.22-.43.22-1.24.22-2.71v-5.4c0-1.47,0-2.28-.22-2.71-.19-.38-.5-.68-.87-.87-.43-.22-1.24-.22-2.71-.22H5.8ZM10,13c-2.61,0-4.19-1.77-4.25-1.84-.36-.42-.32-1.05.09-1.41.42-.36,1.04-.32,1.41.09.06.06,1.08,1.16,2.75,1.16s2.71-1.12,2.75-1.16c.37-.41,1-.45,1.41-.08.41.36.45.99.09,1.4-.07.08-1.64,1.84-4.25,1.84ZM12.75,7c-.83,0-1.5-.67-1.5-1.5s.67-1.5,1.5-1.5,1.5.67,1.5,1.5-.67,1.5-1.5,1.5ZM7.25,7c-.83,0-1.5-.67-1.5-1.5s.67-1.5,1.5-1.5,1.5.67,1.5,1.5-.67,1.5-1.5,1.5Z"/>
</svg>