<?xml version="1.0" encoding="UTF-8"?>
<svg xmlns="http://www.w3.org/2000/svg" version="1.1" viewBox="0 0 22 20">
  <path d="M11,19.9c-.12,0-.24-.01-.35-.03-.24-.04-.45-.13-.72-.26l-6.41-2.94c-.38-.17-.66-.3-.91-.54-.22-.21-.39-.48-.49-.76-.12-.33-.12-.62-.12-1.06v-6.19l-1.45-.72c-.34-.17-.55-.52-.55-.89s.21-.73.55-.89L10.19.78c.17-.09.32-.16.52-.2.19-.03.37-.03.55,0,.21.04.36.11.53.2l9.65,4.82c.34.17.55.52.55.89s-.21.73-.55.89l-1.45.72v6.19c0,.44,0,.73-.11,1.05-.11.29-.27.55-.49.76-.25.24-.51.36-.91.54l-6.4,2.93c-.29.13-.49.22-.75.27-.11.02-.22.03-.33.03ZM4,9.12v5.19c0,.2,0,.32,0,.42.05,0,.16.05.34.13l6.4,2.93c.13.06.21.1.27.12.02-.02.1-.06.22-.12l6.41-2.94c.18-.08.29-.13.38-.18-.02-.04-.03-.17-.03-.36v-5.19l-1,.5v2.88c0,.55-.45,1-1,1s-1-.45-1-1v-1.88l-3.19,1.6c-.17.09-.33.16-.53.2-.18.03-.36.03-.54,0-.21-.04-.37-.12-.53-.2l-6.21-3.1ZM3.47,6.62l7.53,3.77,2.76-1.38-3.21-1.61c-.49-.25-.69-.85-.45-1.34.25-.49.85-.7,1.34-.45l4.55,2.28,2.53-1.27s.03-.01.04-.02l.19-.1-7.76-3.88-7.76,3.88.19.1s.03.01.04.02Z"/>
</svg>