<?xml version="1.0" encoding="UTF-8"?>
<svg xmlns="http://www.w3.org/2000/svg" version="1.1" viewBox="0 0 17 20">
  <path fill="#00b07d" d="M8,19.17h-2.67c-1.53,0-2.3,0-3.01-.36-.63-.32-1.14-.82-1.46-1.46-.36-.71-.36-1.48-.36-3.02V5.67c0-1.53,0-2.3.36-3.01.32-.63.83-1.14,1.46-1.46.71-.36,1.48-.36,3.01-.36h5.33c1.53,0,2.3,0,3.01.36.63.32,1.14.83,1.46,1.46.36.71.36,1.48.36,3.01v2.67c0,.46-.37.83-.83.83s-.83-.37-.83-.83v-2.67c0-1.23,0-1.9-.18-2.26-.16-.31-.42-.57-.73-.73-.36-.18-1.03-.18-2.26-.18h-5.33c-1.23,0-1.9,0-2.26.18-.32.16-.57.41-.73.73-.18.36-.18,1.03-.18,2.26v8.67c0,1.23,0,1.9.18,2.26.16.31.41.57.73.73.36.18,1.03.18,2.26.18h2.67c.46,0,.83.37.83.83s-.37.83-.83.83ZM12.17,18.33c-.19,0-.38-.07-.54-.2-.24-.2-2.33-1.99-3.02-2.85-.94-1.18-.76-2.86.41-3.84.93-.77,2.17-.81,3.15-.18.97-.61,2.21-.58,3.14.17,1.19.96,1.38,2.65.42,3.84-.69.86-2.78,2.65-3.02,2.85-.16.13-.35.2-.54.2ZM10.7,12.5c-.2,0-.41.07-.61.23-.48.4-.56,1.04-.18,1.51.39.48,1.5,1.49,2.26,2.15.76-.67,1.87-1.67,2.26-2.15.38-.47.31-1.12-.17-1.5-.53-.42-1.12-.21-1.46.17-.32.36-.94.36-1.25,0-.21-.24-.51-.41-.84-.41ZM5.5,13.33h-.83c-.46,0-.83-.37-.83-.83s.37-.83.83-.83h.83c.46,0,.83.37.83.83s-.37.83-.83.83ZM8.42,10h-3.75c-.46,0-.83-.37-.83-.83s.37-.83.83-.83h3.75c.46,0,.84.37.84.83s-.37.83-.84.83ZM11.33,6.67h-6.67c-.46,0-.83-.37-.83-.83s.37-.83.83-.83h6.67c.46,0,.83.37.83.83s-.37.83-.83.83Z"/>
</svg>