<?xml version="1.0" encoding="UTF-8"?>
<svg xmlns="http://www.w3.org/2000/svg" version="1.1" viewBox="0 0 22 22">
  <path fill="#00b07d" d="M3.4,22h-.8c-.65,0-1.08,0-1.51-.22-.38-.19-.68-.49-.87-.87-.22-.43-.22-.86-.22-1.51v-5.8c0-.65,0-1.08.22-1.51.19-.38.5-.68.87-.87.43-.22.86-.22,1.51-.22h.8c.65,0,1.08,0,1.51.22.38.19.68.49.87.87.08.15.13.3.16.46l1.61-.67c.29-.14,1.97-.88,3.1-.88.48,0,.95.06,1.42.17l2.39.58c1.11.27,1.9,1.22,1.96,2.33l1.48-1.08c1.03-.75,2.44-.65,3.35.23.49.48.77,1.12.76,1.8,0,.68-.27,1.32-.76,1.8l-2.16,2.1c-.72.7-1.63,1.18-2.63,1.37l-3.05.59c-.74.14-1.52.12-2.25-.05l-2.76-.67c-.25-.06-.51-.09-.77-.09h-1.62c-.02.31-.07.56-.2.82-.19.38-.5.68-.87.87-.43.22-.86.22-1.51.22ZM2.6,13c-.28,0-.57,0-.65.02.05.01.05.3.05.58v5.8c0,.28,0,.57.02.65.01-.05.3-.05.58-.05h.8c.28,0,.57,0,.65-.02-.05-.01-.05-.3-.05-.58v-5.35s0-.03,0-.05v-.4c0-.28,0-.57-.02-.65-.01.05-.3.05-.58.05h-.8ZM6,18.09h1.61c.42,0,.84.05,1.25.15l2.76.67c.46.11.94.12,1.4.03l3.05-.59c.62-.12,1.18-.41,1.62-.84l2.16-2.1c.1-.1.16-.23.16-.37s-.06-.27-.16-.37c-.21-.2-.54-.22-.77-.05l-2.52,1.83c-.53.38-1.18.6-1.84.6h-2.43c-.55,0-1-.45-1-1s.45-1,1-1h1.55c.32,0,.58-.24.58-.53v-.31c0-.24-.18-.45-.43-.52l-2.39-.58c-.31-.08-.63-.11-.95-.11-.51,0-1.65.41-2.3.71l-2.35.98v3.4ZM14.69,10.2c-.37,0-.75-.11-1.06-.3-.38-.23-.58-.55-.89-1.02-1.12-1.74-1.84-2.98-2.13-3.68-.77-1.82.04-3.92,1.84-4.77,1.46-.7,3.08-.31,4.09.88,1.46-.51,3.04-.05,3.97,1.27,1.15,1.63.81,3.85-.79,5.06-.61.46-1.84,1.17-3.68,2.11-.51.26-.84.43-1.29.45-.02,0-.04,0-.06,0ZM13.94,2.07c-.2,0-.41.05-.63.15-.85.4-1.21,1.35-.86,2.19.24.58.94,1.77,1.96,3.36.12.19.26.4.31.45,0-.04.21-.15.41-.25,1.68-.87,2.88-1.55,3.39-1.93.74-.56.9-1.56.36-2.31-.58-.82-1.48-.75-2.12-.31-.24.17-.54.22-.82.14-.28-.08-.52-.27-.64-.53-.25-.52-.74-.95-1.35-.95Z"/>
</svg>