<?xml version="1.0" encoding="UTF-8"?>
<svg xmlns="http://www.w3.org/2000/svg" version="1.1" viewBox="0 0 16 20">
  <path d="M12,19.17h-6.67c-1.53,0-2.3,0-3.01-.36-.63-.32-1.14-.82-1.46-1.46-.19-.37-.28-.76-.32-1.26-.03-.08-.04-.17-.04-.26s0-.18.01-.27c-.01-.35-.01-.75-.01-1.23V5.67c0-1.53,0-2.3.36-3.01.32-.63.83-1.14,1.46-1.46.71-.36,1.48-.36,3.01-.36h6.67c1.03,0,1.6,0,2.13.27.47.24.85.62,1.09,1.09.27.53.27,1.1.27,2.13v11.5h0c0,.93-.02,1.46-.27,1.97-.24.47-.62.85-1.1,1.09-.53.27-1.1.27-2.13.27ZM2.18,15.62c.02.46.06.77.17.97.16.31.41.57.73.73.36.18,1.03.18,2.26.18h6.67c.72,0,1.2,0,1.38-.09.16-.08.28-.21.36-.36.09-.18.09-.66.09-1.38v-1.5H3.83c-.84,0-1.54.63-1.65,1.45ZM5.33,2.5c-1.23,0-1.9,0-2.26.18-.32.16-.57.41-.73.73-.18.36-.18,1.03-.18,2.26v7.28c.49-.28,1.06-.45,1.67-.45h10V4.33c0-.72,0-1.2-.09-1.38-.08-.16-.21-.28-.36-.36-.18-.09-.66-.09-1.38-.09h-6.67Z"/>
</svg>