<?xml version="1.0" encoding="UTF-8"?>
<svg xmlns="http://www.w3.org/2000/svg" version="1.1" viewBox="0 0 20 20">
  <path d="M10,20C4.49,20,0,15.51,0,10S4.49,0,10,0s10,4.49,10,10-4.49,10-10,10ZM10,2.14c-4.33,0-7.86,3.52-7.86,7.86s3.52,7.86,7.86,7.86,7.86-3.52,7.86-7.86-3.52-7.86-7.86-7.86ZM10,14.64c-.27,0-.55-.1-.76-.31-.42-.42-.42-1.1,0-1.51l1.74-1.74h-4.56c-.59,0-1.07-.48-1.07-1.07s.48-1.07,1.07-1.07h4.56l-1.74-1.74c-.42-.42-.42-1.1,0-1.51s1.1-.42,1.51,0l3.57,3.57s0,0,0,0c0,0,0,0,0,0h0s0,0,0,0c0,0,0,0,0,0,.1.1.17.21.22.34h0c.05.13.08.27.08.41s-.03.29-.08.41h0c-.05.12-.12.23-.21.33h0s0,0,0,0h0s0,0,0,0c0,0,0,0,0,0h0s0,0,0,0h0s0,0,0,0h0s0,0,0,0c0,0,0,0,0,0h0s0,0,0,0h0l-3.57,3.57c-.21.21-.48.31-.76.31Z"/>
</svg>