<?xml version="1.0" encoding="UTF-8"?>
<svg xmlns="http://www.w3.org/2000/svg" version="1.1" viewBox="0 0 22 19">
  <path d="M16,19c-.3,0-.59-.13-.79-.38-1.83-2.33-4.22-3.62-6.71-3.62s-4.88,1.29-6.71,3.62c-.34.43-.97.51-1.4.17-.43-.34-.51-.97-.17-1.4,2.22-2.83,5.16-4.38,8.29-4.38s6.07,1.56,8.29,4.38c.34.43.27,1.06-.17,1.4-.18.14-.4.21-.62.21ZM21,19c-.3,0-.59-.13-.79-.38-1.04-1.32-2.29-2.34-3.63-2.94-.5-.23-.73-.82-.5-1.32.23-.5.82-.73,1.32-.5,1.63.74,3.14,1.95,4.37,3.53.34.43.27,1.06-.17,1.4-.18.14-.4.21-.62.21ZM8.5,11c-3.03,0-5.5-2.47-5.5-5.5S5.47,0,8.5,0s5.5,2.47,5.5,5.5-2.47,5.5-5.5,5.5ZM8.5,2c-1.93,0-3.5,1.57-3.5,3.5s1.57,3.5,3.5,3.5,3.5-1.57,3.5-3.5-1.57-3.5-3.5-3.5ZM15,10.53c-.37,0-.72-.2-.9-.55-.25-.49-.04-1.1.45-1.34,1.2-.6,1.95-1.8,1.95-3.14s-.75-2.54-1.95-3.14c-.49-.25-.7-.85-.45-1.34.25-.49.84-.7,1.34-.45,1.88.94,3.05,2.82,3.05,4.93s-1.17,3.99-3.05,4.93c-.14.07-.29.1-.44.1Z"/>
</svg>