<?xml version="1.0" encoding="UTF-8"?>
<svg xmlns="http://www.w3.org/2000/svg" version="1.1" viewBox="0 0 20 20">
  <path d="M14.2,20H5.8c-1.84,0-2.76,0-3.62-.44-.76-.38-1.36-.99-1.75-1.75-.44-.86-.44-1.78-.44-3.62V5.8c0-1.84,0-2.76.44-3.62.39-.76.99-1.36,1.75-1.75.86-.44,1.78-.44,3.62-.44h8.4c1.84,0,2.76,0,3.62.44.76.39,1.36.99,1.75,1.75.44.85.44,1.78.44,3.62v8.4c0,1.84,0,2.76-.44,3.62-.39.76-.99,1.36-1.75,1.75-.86.44-1.78.44-3.62.44ZM5.8,2c-1.47,0-2.28,0-2.71.22-.38.19-.68.5-.87.87-.22.43-.22,1.24-.22,2.71v8.4c0,1.47,0,2.28.22,2.71.19.38.5.68.87.87.43.22,1.24.22,2.71.22h8.4c1.47,0,2.28,0,2.71-.22.38-.19.68-.49.87-.87.22-.43.22-1.24.22-2.71V5.8c0-1.47,0-2.28-.22-2.71-.19-.38-.5-.68-.87-.87-.43-.22-1.24-.22-2.71-.22H5.8Z"/>
  <path d="M10,15.66c-.2,0-.39-.03-.58-.08-.43-.13-.71-.38-1.13-.77-1.76-1.59-2.91-2.74-3.44-3.42-1.31-1.68-1.05-4.1.58-5.5,1.35-1.15,3.17-1.18,4.57-.18,1.39-.98,3.2-.96,4.56.17,1.66,1.38,1.92,3.8.6,5.51-.52.67-1.68,1.83-3.44,3.42-.42.38-.7.64-1.13.77-.19.06-.39.09-.58.09ZM7.8,7c-.35,0-.72.12-1.07.42-.84.72-.97,1.9-.3,2.75.44.57,1.58,1.69,3.2,3.16.17.16.35.32.41.35-.02-.04.17-.2.33-.35,1.62-1.47,2.76-2.6,3.2-3.16.67-.86.55-2.04-.29-2.74-.91-.76-1.95-.38-2.52.29-.38.44-1.14.44-1.52,0-.36-.42-.88-.72-1.44-.72Z"/>
</svg>