<?xml version="1.0" encoding="UTF-8"?>
<svg xmlns="http://www.w3.org/2000/svg" version="1.1" viewBox="0 0 22.01 22">
  <path fill="#5f697c" d="M11,22C4.93,22,0,17.07,0,11,0,5.32,4.26.61,9.9.05c.55-.06,1.04.35,1.09.9.05.55-.35,1.04-.9,1.09C5.48,2.5,2,6.35,2,11c0,.11,0,.22,0,.34.66.11,1.32.16,1.99.16,3.19,0,6.24-1.28,8.47-3.5h-1.47c-.55,0-1-.45-1-1s.45-1,1-1h4c.55,0,1,.45,1,1v4c0,.55-.45,1-1,1s-1-.45-1-1v-1.7c-2.61,2.66-6.22,4.2-10,4.2-.56,0-1.12-.03-1.67-.1,1.05,3.8,4.54,6.6,8.67,6.6,4.65,0,8.5-3.48,8.96-8.1.05-.55.55-.95,1.09-.9.55.05.95.54.9,1.09-.56,5.64-5.26,9.9-10.95,9.9ZM21.01,8.5h-1.5c-.55,0-1-.45-1-1s.45-1,1-1h1.5c.55,0,1,.45,1,1s-.45,1-1,1ZM18.44,4.56c-.26,0-.51-.1-.71-.29-.39-.39-.39-1.02,0-1.41l1.06-1.06c.39-.39,1.02-.39,1.41,0s.39,1.02,0,1.41l-1.06,1.06c-.2.2-.45.29-.71.29ZM14.5,3.5c-.55,0-1-.45-1-1v-1.5c0-.55.45-1,1-1s1,.45,1,1v1.5c0,.55-.45,1-1,1Z"/>
</svg>