<?xml version="1.0" encoding="UTF-8"?>
<svg xmlns="http://www.w3.org/2000/svg" version="1.1" viewBox="0 0 18 20">
  <path d="M17,20c-.21,0-.41-.06-.59-.19l-2.13-1.55-1.9,1.52c-.35.28-.85.29-1.21.03l-2.16-1.57-2.16,1.57c-.36.27-.86.25-1.21-.03l-1.9-1.52-2.13,1.55c-.3.22-.71.25-1.04.08-.34-.17-.55-.51-.55-.89V5.8c0-1.84,0-2.76.44-3.62.39-.76.99-1.36,1.75-1.75C3.04,0,3.96,0,5.8,0h6.4C14.04,0,14.96,0,15.82.44c.76.39,1.36.99,1.75,1.75.44.86.44,1.78.44,3.62v13.2c0,.38-.21.72-.55.89-.14.07-.3.11-.45.11ZM9,16c.21,0,.41.06.59.19l2.13,1.55,1.9-1.52c.35-.28.85-.29,1.21-.03l1.16.84V5.8c0-1.47,0-2.28-.22-2.71-.19-.38-.5-.68-.87-.87-.43-.22-1.24-.22-2.71-.22h-6.4c-1.47,0-2.28,0-2.71.22-.38.19-.68.5-.87.87-.22.43-.22,1.24-.22,2.71v11.24l1.16-.84c.37-.26.86-.25,1.21.03l1.9,1.52,2.13-1.55c.18-.13.38-.19.59-.19Z"/>
</svg>