<?xml version="1.0" encoding="UTF-8"?>
<svg xmlns="http://www.w3.org/2000/svg" version="1.1" viewBox="0 0 22 22">
  <path fill="#00b07d" d="M20.2,22h-3.4c-.36,0-.66,0-.98-.17-.28-.14-.51-.37-.65-.66-.16-.32-.16-.62-.16-.98v-3.4c0-.36,0-.66.17-.98.14-.28.37-.51.66-.65.32-.16.62-.16.98-.16h3.4c.36,0,.66,0,.98.17.28.14.51.37.65.66.16.32.16.62.16.98v3.4c0,.36,0,.66-.17.98-.14.28-.37.51-.66.65-.32.16-.62.16-.98.16ZM17,20h3v-3h-3v3ZM12,19.5h-7.3c-1.24,0-1.92,0-2.56-.33-.57-.29-1.02-.74-1.31-1.31-.33-.64-.33-1.33-.33-2.56v-1.3c0-1.03,0-1.6.23-2.15.31-.74.88-1.32,1.62-1.62.55-.23,1.12-.23,2.15-.23.55,0,1,.45,1,1s-.45,1-1,1c-.72,0-1.2,0-1.38.08-.24.1-.44.3-.54.54-.08.18-.08.66-.08,1.38v1.3c0,.87,0,1.44.11,1.65.1.19.25.34.44.44.21.11.79.11,1.65.11h7.3c.55,0,1,.45,1,1s-.45,1-1,1ZM12.7,14.5h-3.4c-.35,0-.66,0-.98-.16-.28-.14-.51-.37-.66-.66-.16-.32-.16-.62-.16-.98v-3.4c0-.35,0-.66.16-.98.14-.28.37-.51.66-.65.32-.16.62-.16.98-.16h3.4c.36,0,.66,0,.98.17.28.14.51.37.65.66.16.32.16.62.16.98v3.4c0,.36,0,.66-.17.98-.14.28-.37.51-.66.65-.32.16-.62.16-.98.16ZM9.5,12.5h3v-3h-3v3ZM17.5,12c-.55,0-1-.45-1-1s.45-1,1-1c.72,0,1.2,0,1.38-.08.25-.1.44-.29.54-.54.08-.18.08-.66.08-1.38v-1.3c0-.87,0-1.44-.11-1.66-.1-.19-.25-.34-.44-.44-.21-.11-.79-.11-1.65-.11h-7.3c-.55,0-1-.45-1-1s.45-1,1-1h7.3c1.24,0,1.92,0,2.56.33.57.29,1.02.74,1.31,1.31.33.64.33,1.33.33,2.56v1.3c0,1.03,0,1.6-.23,2.15-.31.74-.88,1.32-1.62,1.62-.55.23-1.12.23-2.15.23ZM5.2,7H1.8c-.35,0-.66,0-.98-.16-.28-.14-.51-.37-.65-.66-.16-.32-.16-.62-.16-.98V1.8c0-.35,0-.66.16-.98.14-.28.37-.51.66-.65.32-.16.62-.16.98-.16h3.4c.35,0,.66,0,.98.16.28.14.51.37.65.66.16.32.16.62.16.98v3.4c0,.35,0,.66-.16.98-.14.28-.37.51-.66.65-.32.16-.62.16-.98.16ZM2,5h3v-3h-3v3Z"/>
</svg>