<?xml version="1.0" encoding="UTF-8"?>
<svg xmlns="http://www.w3.org/2000/svg" version="1.1" viewBox="0 0 22 20">
  <path fill="#00b07d" d="M21,20H1c-.55,0-1-.45-1-1s.45-1,1-1v-5.8c0-1.24,0-1.92.33-2.56.29-.57.74-1.02,1.31-1.31.64-.33,1.33-.33,2.56-.33h3.8v-3.8c0-1.24,0-1.92.33-2.56.29-.57.74-1.02,1.31-1.31.64-.33,1.33-.33,2.56-.33h3.6c1.24,0,1.92,0,2.56.33.57.29,1.02.74,1.31,1.31.33.64.33,1.33.33,2.56v13.8c.55,0,1,.45,1,1s-.45,1-1,1ZM11,18h8V4.2c0-.87,0-1.44-.11-1.66-.1-.19-.25-.34-.44-.44-.21-.11-.79-.11-1.65-.11h-3.6c-.87,0-1.44,0-1.66.11-.19.1-.34.25-.44.44-.11.21-.11.79-.11,1.65v13.8ZM3,18h6v-8h-3.8c-.87,0-1.44,0-1.66.11-.19.1-.34.25-.44.44-.11.21-.11.79-.11,1.65v5.8ZM16.5,14h-3c-.55,0-1-.45-1-1s.45-1,1-1h3c.55,0,1,.45,1,1s-.45,1-1,1ZM16.5,10h-3c-.55,0-1-.45-1-1s.45-1,1-1h3c.55,0,1,.45,1,1s-.45,1-1,1ZM16.5,6h-3c-.55,0-1-.45-1-1s.45-1,1-1h3c.55,0,1,.45,1,1s-.45,1-1,1Z"/>
</svg>