<?xml version="1.0" encoding="UTF-8"?>
<svg xmlns="http://www.w3.org/2000/svg" version="1.1" viewBox="0 0 22 20">
  <path d="M17,20c-.23,0-.45-.08-.64-.23l-3.95-3.29c-.15-.12-.29-.24-.41-.34v2.86c0,.55-.45,1-1,1s-1-.45-1-1v-2.86c-.12.1-.26.21-.41.34l-3.95,3.29c-.42.35-1.06.3-1.41-.13-.35-.42-.3-1.06.13-1.41l3.88-3.23h-1.44c-1.84,0-2.76,0-3.62-.44-.76-.38-1.36-.99-1.75-1.75-.44-.86-.44-1.78-.44-3.62V2c-.55,0-1-.45-1-1S.45,0,1,0h20c.55,0,1,.45,1,1s-.45,1-1,1v7.2c0,1.84,0,2.76-.44,3.62-.39.76-.99,1.36-1.75,1.75-.86.44-1.78.44-3.62.44h-1.44l3.88,3.23c.42.35.48.98.13,1.41-.2.24-.48.36-.77.36ZM3,2v7.2c0,1.47,0,2.28.22,2.71.19.38.5.68.87.87.43.22,1.24.22,2.71.22h8.4c1.47,0,2.28,0,2.71-.22.38-.19.68-.49.87-.87.22-.43.22-1.24.22-2.71V2H3ZM15,11c-.55,0-1-.45-1-1v-5c0-.55.45-1,1-1s1,.45,1,1v5c0,.55-.45,1-1,1ZM11,11c-.55,0-1-.45-1-1v-3c0-.55.45-1,1-1s1,.45,1,1v3c0,.55-.45,1-1,1ZM7,11c-.55,0-1-.45-1-1v-1c0-.55.45-1,1-1s1,.45,1,1v1c0,.55-.45,1-1,1Z"/>
</svg>