<?xml version="1.0" encoding="UTF-8"?>
<svg xmlns="http://www.w3.org/2000/svg" version="1.1" viewBox="0 0 22 18">
  <path d="M17.57,18c-.55,0-1-.45-1-1s.45-1,1-1c.71,0,1.29-.58,1.29-1.29v-4.57c0-.27.11-.52.29-.71l.44-.44-.44-.44c-.19-.19-.29-.44-.29-.71V3.29c0-.71-.58-1.29-1.29-1.29-.55,0-1-.45-1-1s.45-1,1-1c1.81,0,3.29,1.47,3.29,3.29v4.16l.85.85c.19.19.29.44.29.71s-.11.52-.29.71l-.85.85v4.16c0,1.81-1.47,3.29-3.29,3.29ZM4.43,18c-1.81,0-3.29-1.47-3.29-3.29v-4.16l-.85-.85c-.19-.19-.29-.44-.29-.71s.11-.52.29-.71l.85-.85V3.29C1.14,1.47,2.62,0,4.43,0c.55,0,1,.45,1,1s-.45,1-1,1c-.71,0-1.29.58-1.29,1.29v4.57c0,.27-.11.52-.29.71l-.44.44.44.44c.19.19.29.44.29.71v4.57c0,.71.58,1.29,1.29,1.29.55,0,1,.45,1,1s-.45,1-1,1ZM9.5,12.79c-.16,0-.31-.02-.46-.07-.34-.11-.56-.32-.8-.57l-2.44-2.44c-.39-.39-.39-1.02,0-1.41.39-.39,1.02-.39,1.41,0l2.29,2.29,5.29-5.29c.39-.39,1.02-.39,1.41,0s.39,1.02,0,1.41l-5.43,5.43c-.26.25-.47.47-.81.58-.15.05-.31.07-.46.07Z"/>
</svg>