<?xml version="1.0" encoding="UTF-8"?>
<svg xmlns="http://www.w3.org/2000/svg" version="1.1" viewBox="0 0 21 19">
  <path fill="#5f697c" d="M18.5,19c-.55,0-1-.45-1-1v-7c0-.55.45-1,1-1s1,.45,1,1v7c0,.55-.45,1-1,1ZM10.5,19c-.55,0-1-.45-1-1v-10c0-.55.45-1,1-1s1,.45,1,1v10c0,.55-.45,1-1,1ZM2.5,19c-.55,0-1-.45-1-1v-4c0-.55.45-1,1-1s1,.45,1,1v4c0,.55-.45,1-1,1ZM2.5,11c-.67,0-1.3-.26-1.77-.73-.47-.47-.73-1.1-.73-1.77s.26-1.3.73-1.77c.78-.78,2.06-.94,3-.41l4.33-3.25c-.04-.19-.07-.38-.07-.58,0-.67.26-1.3.73-1.77.94-.94,2.59-.94,3.54,0h0c.44.44.7,1.02.73,1.64l3.71,1.39s.02-.02.03-.03c.97-.97,2.56-.97,3.54,0h0c.47.47.73,1.1.73,1.77s-.26,1.3-.73,1.77c-.97.97-2.56.97-3.54,0-.44-.44-.7-1.02-.73-1.64l-3.71-1.39s-.02.02-.03.03c-.78.78-2.07.94-3,.41l-4.33,3.25c.04.19.07.38.07.58,0,.67-.26,1.3-.73,1.77-.47.47-1.1.73-1.77.73ZM2.5,8c-.08,0-.23.02-.35.15-.13.13-.15.28-.15.35s.02.23.15.35c.13.13.28.15.35.15s.23-.02.35-.15c.13-.13.15-.28.15-.35s-.02-.23-.15-.35t0,0c-.13-.13-.28-.15-.35-.15ZM18.5,5c-.13,0-.26.05-.35.15-.13.13-.15.28-.15.35s.02.23.15.35c.2.2.51.19.71,0,.13-.13.15-.28.15-.35s-.02-.23-.15-.35h0c-.1-.1-.23-.15-.35-.15ZM10.5,2c-.08,0-.23.02-.35.15-.13.13-.15.28-.15.35s.02.23.15.35c.13.13.28.15.35.15s.23-.02.35-.15c.13-.13.15-.28.15-.35s-.02-.23-.15-.35t0,0c-.13-.13-.28-.15-.35-.15Z"/>
</svg>