<?xml version="1.0" encoding="UTF-8"?>
<svg xmlns="http://www.w3.org/2000/svg" version="1.1" viewBox="0 0 156 26.93">
  <path fill-rule="evenodd" d="M117.96,4.13v2.41h-5.66v6.44c0,3.71.59,4.51,3.3,4.51.84,0,1.53-.1,2.19-.31l.18-.06v2.63l-.1.02c-.47.11-1.56.27-2.51.27-3.67,0-5.79-1.85-5.83-5.07V6.54h-3.2v-2.41h3.2V1.3l2.8-1.36v4.19h5.63ZM13.52,4.13v1.58c-1.11-1.26-3.19-1.99-5.65-1.99C2.87,3.72,0,6.8,0,12.16c0,7.09,4.89,8.15,7.81,8.15,2.47,0,4.61-.71,5.71-1.87v1.45c0,3.22-1.39,4.59-4.64,4.59-2.37,0-3.55-.5-4.23-1.76-.07-.14-.09-.18-.09-.18l-.03-.09H1.4s.08.26.08.26c1.11,3.5,4.66,4.23,7.45,4.23,4.81,0,7.35-2.53,7.35-7.33V4.13h-2.77ZM8.05,17.8c-4.34,0-5.08-2.11-5.08-5.77s.75-5.77,5.08-5.77,5.08,2.11,5.08,5.77-.75,5.77-5.08,5.77ZM148.1,3.72c-2.44,0-4.5.74-5.62,2.01v-1.59h-2.77v21.92h2.77v-7.6c1.1,1.18,3.26,1.89,5.74,1.89,4.94,0,7.78-2.96,7.78-8.12,0-5.32-2.95-8.5-7.9-8.5ZM147.86,17.76c-4.33,0-5.08-2.11-5.08-5.77s.75-5.77,5.08-5.77,5.08,2.11,5.08,5.77-.75,5.77-5.08,5.77ZM22.71,5.66c.9-.98,2.7-1.94,4.9-1.94,1,0,1.78.11,2.41.41l.03,2.31s-1.12-.22-2.08-.22c-3.72,0-5.26,1.57-5.26,5.51v8.18h-2.77V4.13h2.77v1.53ZM78.88,3.72c-2.85,0-4.79.71-5.8,2.1v-1.69h-2.77v15.77h2.77v-8.53c0-3.19,1.97-5.2,5.28-5.2,3.12,0,4.7.86,4.7,5.55v8.18h2.77v-8.18c0-5.68-2.01-8-6.95-8ZM50.6,11.9c0-3.04,1.77-8.18,8.38-8.18,5,0,8.23,2.92,8.23,7.45,0,.31-.04,1.53-.04,1.58v.13h-13.33c.04,3.31,1.74,4.99,5.05,4.99s4.36-.67,5.15-2.53h3.07c-1.09,3.27-3.96,5.01-8.13,5.01-2.68,0-4.88-.93-6.39-2.7-1.29-1.51-2-3.55-2-5.75ZM58.96,6.12c-2.47,0-5.12.72-5.12,4.37h10.27c-.05-2.98-1.62-4.37-5.15-4.37ZM39.35,3.72c-6.62,0-8.38,5.14-8.38,8.18,0,2.19.71,4.23,2,5.75,1.5,1.76,3.71,2.7,6.39,2.7,4.17,0,7.04-1.74,8.13-5.01h-3.07c-.79,1.86-1.87,2.53-5.15,2.53s-5.01-1.68-5.05-4.99h13.33v-.13c0-.05.04-1.28.04-1.58,0-4.52-3.23-7.45-8.23-7.45ZM34.21,10.49c0-3.65,2.65-4.37,5.12-4.37,3.54,0,5.11,1.39,5.15,4.37h-10.27ZM120.03,11.9c0-3.04,1.76-8.18,8.38-8.18,5,0,8.23,2.92,8.23,7.45,0,.31-.04,1.53-.04,1.58v.13h-13.33c.04,3.31,1.74,4.99,5.05,4.99s4.36-.67,5.15-2.53h3.07c-1.09,3.27-3.96,5.01-8.13,5.01-2.67,0-4.88-.93-6.39-2.7-1.29-1.51-2-3.55-2-5.75ZM128.39,6.12c-2.47,0-5.12.72-5.12,4.37h10.27c-.05-2.98-1.62-4.37-5.15-4.37ZM96.73,3.72c-4.46,0-7.26,1.74-7.26,4.78,0,3.41,3.63,4.09,6.87,4.44.57.06,1.11.1,1.61.14,2.46.19,4.15.32,4.15,2.35,0,1.72-1.65,2.53-4.95,2.53-2.08,0-5.54-.22-5.54-2.91l-2.8.02c0,4.6,4.73,5.27,8.34,5.27,5.34,0,7.84-1.55,7.84-5.13,0-4.03-3.39-4.33-6.49-4.6l-.24-.02h-.12c-4.03-.37-5.77-.53-5.77-2.37,0-1.63,1.98-2.11,4.52-2.11,3.09,0,4.62.83,4.84,2.48h2.89c-.25-3.04-3.21-4.86-7.88-4.86Z"/>
</svg>